<?xml version="1.0" encoding="UTF-8" standalone="no"?>
<svg
   xmlns:dc="http://purl.org/dc/elements/1.1/"
   xmlns:cc="http://creativecommons.org/ns#"
   xmlns:rdf="http://www.w3.org/1999/02/22-rdf-syntax-ns#"
   xmlns:svg="http://www.w3.org/2000/svg"
   xmlns="http://www.w3.org/2000/svg"
   xmlns:sodipodi="http://sodipodi.sourceforge.net/DTD/sodipodi-0.dtd"
   xmlns:inkscape="http://www.inkscape.org/namespaces/inkscape"
   width="210mm"
   height="297mm"
   viewBox="0 0 210 297"
   version="1.1"
   id="svg167494"
   sodipodi:docname="Task9.svg"
   inkscape:version="1.0.1 (3bc2e813f5, 2020-09-07)">
  <defs
     id="defs167488" />
  <sodipodi:namedview
     id="base"
     pagecolor="#ffffff"
     bordercolor="#666666"
     borderopacity="1.0"
     inkscape:pageopacity="0.0"
     inkscape:pageshadow="2"
     inkscape:zoom="0.98994949"
     inkscape:cx="247.17195"
     inkscape:cy="456.23139"
     inkscape:document-units="mm"
     inkscape:current-layer="layer1"
     inkscape:document-rotation="0"
     showgrid="false" />
  <metadata
     id="metadata167491">
    <rdf:RDF>
      <cc:Work
         rdf:about="">
        <dc:format>image/svg+xml</dc:format>
        <dc:type
           rdf:resource="http://purl.org/dc/dcmitype/StillImage" />
        <dc:title />
      </cc:Work>
    </rdf:RDF>
  </metadata>
  <g
     inkscape:label="Layer 1"
     inkscape:groupmode="layer"
     id="layer1">
    <text
       xml:space="preserve"
       style="font-style:normal;font-weight:normal;font-size:10.5833px;line-height:1.25;font-family:sans-serif;fill:#000000;fill-opacity:1;stroke:none;stroke-width:0.264583"
       id="text167498"
       y="44.915501"
       x="22.15457"><tspan
         sodipodi:role="line"
         x="22.15457"
         y="44.915501"
         style="font-style:normal;font-variant:normal;font-weight:normal;font-stretch:normal;font-size:6.35px;font-family:sans-serif;-inkscape-font-specification:'sans-serif, Normal';font-variant-ligatures:normal;font-variant-caps:normal;font-variant-numeric:normal;font-variant-east-asian:normal;stroke-width:0.264583"
         id="tspan167506">Это пр                 осто текст</tspan><tspan
         sodipodi:role="line"
         x="22.15457"
         y="58.144627"
         style="font-style:normal;font-variant:normal;font-weight:normal;font-stretch:normal;font-size:6.35px;font-family:sans-serif;-inkscape-font-specification:'sans-serif, Normal';font-variant-ligatures:normal;font-variant-caps:normal;font-variant-numeric:normal;font-variant-east-asian:normal;stroke-width:0.264583"
         id="tspan1109">Это про           сто текст</tspan><tspan
         sodipodi:role="line"
         x="22.15457"
         y="71.373749"
         style="font-style:normal;font-variant:normal;font-weight:normal;font-stretch:normal;font-size:6.35px;font-family:sans-serif;-inkscape-font-specification:'sans-serif, Normal';font-variant-ligatures:normal;font-variant-caps:normal;font-variant-numeric:normal;font-variant-east-asian:normal;stroke-width:0.264583"
         id="tspan1111">Это прот      ой и необычный текст</tspan><tspan
         sodipodi:role="line"
         x="22.15457"
         y="84.602875"
         style="font-style:normal;font-variant:normal;font-weight:normal;font-stretch:normal;font-size:6.35px;font-family:sans-serif;-inkscape-font-specification:'sans-serif, Normal';font-variant-ligatures:normal;font-variant-caps:normal;font-variant-numeric:normal;font-variant-east-asian:normal;stroke-width:0.264583"
         id="tspan1117">Это необычный и прост      ой текст</tspan><tspan
         sodipodi:role="line"
         x="22.15457"
         y="97.832001"
         style="font-style:normal;font-variant:normal;font-weight:normal;font-stretch:normal;font-size:6.35px;font-family:sans-serif;-inkscape-font-specification:'sans-serif, Normal';font-variant-ligatures:normal;font-variant-caps:normal;font-variant-numeric:normal;font-variant-east-asian:normal;stroke-width:0.264583"
         id="tspan1119">Это обычный текст </tspan></text>
    <g
       id="g1322"
       transform="translate(-16.83798,-42.495855)">
      <path
         d="m 47.037562,171.13419 q 1.246873,0.72586 2.727836,0.70162 1.527243,-0.025 2.195949,-0.59663 0.668705,-0.57163 0.7628,-1.51687 l -4.61644,0.0755 -0.02359,-0.67086 4.61644,-0.0755 q -0.160446,-0.94107 -0.868574,-1.49016 -0.708266,-0.55305 -2.23551,-0.52804 -1.480963,0.0242 -2.675366,0.79005 l -0.02956,-0.84055 q 1.183571,-0.58006 2.751309,-0.60572 1.937979,-0.0317 3.094929,0.77063 1.156811,0.79841 1.206644,2.2151 0.04998,1.42064 -1.049233,2.25992 -1.099343,0.83533 -3.037323,0.86705 -1.544598,0.0253 -2.791009,-0.5229 z"
         style="font-style:normal;font-weight:normal;font-size:10.5833px;line-height:1.25;font-family:sans-serif;fill:#000000;fill-opacity:1;stroke:none;stroke-width:0.264583"
         id="path167602" />
      <path
         d="m 53.745028,164.99814 4.973482,-0.42439 0.04116,0.96225 -2.067262,0.17641 0.272496,6.36914 -0.838956,0.0716 -0.272497,-6.36914 -2.067263,0.17639 z"
         style="font-style:normal;font-weight:normal;font-size:10.5833px;line-height:1.25;font-family:sans-serif;fill:#000000;fill-opacity:1;stroke:none;stroke-width:0.264583"
         id="path167604" />
      <path
         d="m 63.432298,165.00265 q -1.017956,0.0905 -1.535381,0.90675 -0.518062,0.80968 -0.38968,2.13296 0.128378,1.32327 0.787109,2.03499 0.664968,0.70452 1.689802,0.61344 1.011077,-0.0898 1.528502,-0.90613 0.517424,-0.81626 0.38968,-2.13296 -0.127108,-1.31011 -0.79271,-2.02123 -0.666244,-0.71769 -1.677322,-0.62782 z m -0.09964,-1.02702 q 1.65074,-0.14672 2.692678,0.79655 1.041936,0.94326 1.218221,2.76031 0.175647,1.81044 -0.666372,2.92782 -0.842658,1.11078 -2.493398,1.25749 -1.657618,0.14735 -2.699554,-0.79593 -1.035698,-0.95045 -1.211345,-2.76091 -0.176284,-1.81704 0.659496,-2.92721 0.842656,-1.11078 2.500274,-1.25812 z"
         style="font-style:normal;font-weight:normal;font-size:10.5833px;line-height:1.25;font-family:sans-serif;fill:#000000;fill-opacity:1;stroke:none;stroke-width:0.264584"
         id="path167606" />
      <path
         d="m 74.797357,162.58527 1.329014,7.75869 -0.937392,0.11239 -1.154582,-6.74036 -3.024977,0.36283 1.154582,6.74034 -0.937393,0.11239 -1.329015,-7.75868 z"
         style="font-style:normal;font-weight:normal;font-size:10.5833px;line-height:1.25;font-family:sans-serif;fill:#000000;fill-opacity:1;stroke:none;stroke-width:0.264583"
         id="path167608" />
      <path
         d="m 78.530261,168.57252 0.05791,3.97013 -0.95584,0.0233 -0.150724,-10.33305 0.955841,-0.0233 0.01657,1.13624 q 0.28992,-0.6757 0.739911,-1.00761 0.45506,-0.33874 1.090564,-0.35425 1.054009,-0.0257 1.725974,1.04103 0.677133,1.06662 0.702871,2.83113 0.02574,1.7645 -0.619807,2.8634 -0.640378,1.09878 -1.694386,1.12451 -0.635505,0.0155 -1.100022,-0.29407 -0.459447,-0.31641 -0.768865,-0.97747 z m 3.196239,-2.69228 q -0.01979,-1.3568 -0.465006,-2.11485 -0.440146,-0.76483 -1.194485,-0.74643 -0.75434,0.0184 -1.177034,0.80432 -0.417625,0.77911 -0.397834,2.1359 0.01979,1.3568 0.459937,2.12165 0.445215,0.75803 1.199554,0.73961 0.75434,-0.0184 1.171965,-0.7975 0.422694,-0.78591 0.402903,-2.1427 z"
         style="font-style:normal;font-weight:normal;font-size:10.5833px;line-height:1.25;font-family:sans-serif;fill:#000000;fill-opacity:1;stroke:none;stroke-width:0.264583"
         id="path167610" />
      <path
         d="m 88.144271,161.57553 q -0.981628,-0.18144 -1.692187,0.73934 -0.709345,0.91186 -0.952184,2.68985 -0.242842,1.77799 0.180793,2.90824 0.431471,1.12264 1.419737,1.30525 0.975005,0.18008 1.685553,-0.74056 0.710554,-0.92071 0.952184,-2.68984 0.24042,-1.7603 -0.189841,-2.89179 -0.429055,-1.14034 -1.404055,-1.32049 z m 0.188468,-1.37991 q 1.591837,0.29411 2.312039,1.84192 0.720203,1.54782 0.386753,3.98924 -0.332242,2.43256 -1.430596,3.65345 -1.097143,1.21202 -2.688981,0.91792 -1.59847,-0.29536 -2.318672,-1.84318 -0.71236,-1.55544 -0.380121,-3.98799 0.333451,-2.44142 1.423964,-3.65468 1.097144,-1.21203 2.695614,-0.91668 z"
         style="font-style:normal;font-weight:normal;font-size:10.5833px;line-height:1.25;font-family:sans-serif;fill:#000000;fill-opacity:1;stroke:none;stroke-width:0.264583"
         id="path167612" />
      <path
         d="m 99.382923,161.5962 -0.226687,1.8427 q -0.463784,-0.62573 -0.963235,-1.01788 -0.49146,-0.40075 -1.025259,-0.57005 -1.194379,-0.37877 -2.005202,0.63307 -0.809506,1.00112 -1.079685,3.19736 -0.270179,2.19627 0.240153,3.62708 0.51165,1.42011 1.706026,1.79891 0.533801,0.16927 1.081932,0.10925 0.556123,-0.0685 1.13325,-0.36415 l -0.224051,1.82129 q -0.561229,0.22274 -1.138769,0.23994 -0.570868,0.019 -1.191411,-0.17751 -1.688142,-0.53539 -2.472791,-2.55412 -0.784649,-2.01873 -0.428803,-4.91135 0.361117,-2.93548 1.56891,-4.30008 1.214466,-1.36246 2.96266,-0.80806 0.567162,0.17984 1.083913,0.54412 0.518067,0.35354 0.979049,0.88933 z"
         style="font-style:normal;font-weight:normal;font-size:10.5833px;line-height:1.25;font-family:sans-serif;fill:#000000;fill-opacity:1;stroke:none;stroke-width:0.264583"
         id="path167614" />
      <path
         d="m 100.40285,163.46446 5.31146,2.49338 -0.21808,1.1398 -2.20775,-1.03639 -1.44346,7.54439 -0.89596,-0.42061 1.44346,-7.54439 -2.20775,-1.03639 z"
         style="font-style:normal;font-weight:normal;font-size:10.5833px;line-height:1.25;font-family:sans-serif;fill:#000000;fill-opacity:1;stroke:none;stroke-width:0.264583"
         id="path167616" />
      <path
         d="m 107.70031,170.17298 q -0.7204,-0.2568 -1.34029,0.15862 -0.61816,0.41056 -0.96692,1.38895 -0.34876,0.97839 -0.13629,1.69052 0.21908,0.709 0.94435,0.96753 0.71554,0.25506 1.33543,-0.16036 0.61989,-0.41542 0.96692,-1.38895 0.34529,-0.96865 0.12795,-1.68252 -0.21561,-0.71873 -0.93115,-0.97379 z m 0.27068,-0.75935 q 1.16823,0.41643 1.56441,1.41349 0.39619,0.99706 -0.0827,2.34052 -0.47716,1.3386 -1.41644,1.8651 -0.93754,0.52164 -2.10577,0.10521 -1.17309,-0.41817 -1.56928,-1.41523 -0.38958,-1.00019 0.0876,-2.33879 0.4789,-1.34346 1.41157,-1.86683 0.93755,-0.52164 2.11064,-0.10347 z"
         style="font-style:normal;font-weight:normal;font-size:10.5833px;line-height:1.25;font-family:sans-serif;fill:#000000;fill-opacity:1;stroke:none;stroke-width:0.264583"
         id="path167618" />
      <path
         d="m 113.22438,171.92337 5.09327,2.19183 -0.30028,0.69777 -2.11706,-0.91105 -1.98755,4.61859 -0.85917,-0.36973 1.98756,-4.61859 -2.11705,-0.91105 z"
         style="font-style:normal;font-weight:normal;font-size:10.5833px;line-height:1.25;font-family:sans-serif;fill:#000000;fill-opacity:1;stroke:none;stroke-width:0.264583"
         id="path167620" />
      <path
         d="m 122.93529,179.19454 -0.18327,0.42746 -4.01809,-1.7227 q -0.3299,0.92685 -0.0491,1.6095 0.28761,0.67994 1.15677,1.05258 0.50345,0.21584 1.0266,0.29395 0.52789,0.0801 1.09923,0.0327 l -0.35431,0.82641 q -0.55573,-0.002 -1.09448,-0.10939 -0.53874,-0.10729 -1.04694,-0.32517 -1.27287,-0.54572 -1.70089,-1.60634 -0.42326,-1.05859 0.11839,-2.32196 0.55997,-1.30612 1.59074,-1.76942 1.03756,-0.46601 2.23444,0.0471 1.07339,0.4602 1.39828,1.42038 0.33168,0.95747 -0.17739,2.14485 z m -0.76396,-0.63115 q 0.29798,-0.72125 0.087,-1.31772 -0.2062,-0.59443 -0.85213,-0.87136 -0.73143,-0.31359 -1.35029,-0.0898 -0.61411,0.22587 -1.00234,0.94779 z"
         style="font-style:normal;font-weight:normal;font-size:10.5833px;line-height:1.25;font-family:sans-serif;fill:#000000;fill-opacity:1;stroke:none;stroke-width:0.264583"
         id="path167622" />
      <path
         d="m 124.82516,176.92512 0.90674,0.26857 -0.77195,2.60625 3.34352,-1.84457 1.1198,0.33167 -2.75614,1.51733 1.38496,4.11282 -1.0207,-0.30232 -1.13789,-3.38212 -1.26963,0.70185 -0.53566,1.80852 -0.90674,-0.26856 z"
         style="font-style:normal;font-weight:normal;font-size:10.5833px;line-height:1.25;font-family:sans-serif;fill:#000000;fill-opacity:1;stroke:none;stroke-width:0.264583"
         id="path167624" />
      <path
         d="m 134.80848,179.89241 -0.22537,0.85979 q -0.33356,-0.31715 -0.70095,-0.52564 -0.36107,-0.21218 -0.76097,-0.317 -0.89478,-0.23454 -1.53903,0.20559 -0.64294,0.43514 -0.91155,1.45988 -0.26861,1.02475 0.0769,1.72433 0.34681,0.69457 1.24159,0.92912 0.3999,0.10482 0.81731,0.10205 0.42373,-0.006 0.86998,-0.1192 l -0.22275,0.84979 q -0.43208,0.0791 -0.87056,0.0603 -0.43348,-0.0175 -0.89837,-0.13932 -1.26468,-0.33151 -1.80115,-1.32155 -0.53648,-0.99003 -0.1827,-2.33969 0.35902,-1.36966 1.31455,-1.95792 0.96053,-0.58695 2.2702,-0.24365 0.4249,0.11138 0.80621,0.30749 0.38262,0.19111 0.71667,0.46565 z"
         style="font-style:normal;font-weight:normal;font-size:10.5833px;line-height:1.25;font-family:sans-serif;fill:#000000;fill-opacity:1;stroke:none;stroke-width:0.264583"
         id="path167626" />
      <path
         d="m 135.97778,179.93233 5.31899,1.56648 -0.21461,0.7287 -2.21087,-0.65112 -1.42049,4.82328 -0.89724,-0.26424 1.42049,-4.82328 -2.21088,-0.65112 z"
         style="font-style:normal;font-weight:normal;font-size:10.5833px;line-height:1.25;font-family:sans-serif;fill:#000000;fill-opacity:1;stroke:none;stroke-width:0.264583"
         id="path167628" />
    </g>
    <text
       xml:space="preserve"
       style="font-style:normal;font-weight:normal;font-size:10.5833px;line-height:1.25;font-family:sans-serif;fill:#000000;fill-opacity:1;stroke:none;stroke-width:0.264583"
       x="82.398804"
       y="88.068451"
       id="text1115"><tspan
         sodipodi:role="line"
         id="tspan1113"
         x="82.398804"
         y="88.068451"
         style="stroke-width:0.264583" /></text>
  </g>
</svg>
