<?xml version="1.0" encoding="UTF-8" standalone="no"?>
<svg
   xmlns:dc="http://purl.org/dc/elements/1.1/"
   xmlns:cc="http://creativecommons.org/ns#"
   xmlns:rdf="http://www.w3.org/1999/02/22-rdf-syntax-ns#"
   xmlns:svg="http://www.w3.org/2000/svg"
   xmlns="http://www.w3.org/2000/svg"
   xmlns:xlink="http://www.w3.org/1999/xlink"
   xmlns:sodipodi="http://sodipodi.sourceforge.net/DTD/sodipodi-0.dtd"
   xmlns:inkscape="http://www.inkscape.org/namespaces/inkscape"
   width="210mm"
   height="297mm"
   viewBox="0 0 210 297"
   version="1.1"
   id="svg167290"
   sodipodi:docname="Task7.svg"
   inkscape:version="1.0.1 (3bc2e813f5, 2020-09-07)"
   inkscape:export-filename="C:\Users\Vladislav\Desktop\Компьютерная графика новая\Выполненные задания\Лабораторная работа 4\Task7.png"
   inkscape:export-xdpi="191.39783"
   inkscape:export-ydpi="191.39783">
  <defs
     id="defs167284">
    <linearGradient
       inkscape:collect="always"
       id="linearGradient167340">
      <stop
         style="stop-color:#f6e762;stop-opacity:1"
         offset="0"
         id="stop167336" />
      <stop
         style="stop-color:#d2631b;stop-opacity:0;"
         offset="1"
         id="stop167338" />
    </linearGradient>
    <radialGradient
       inkscape:collect="always"
       xlink:href="#linearGradient167340"
       id="radialGradient167346"
       cx="91.486458"
       cy="56.25581"
       fx="91.486458"
       fy="56.25581"
       r="6.834444"
       gradientTransform="matrix(1,0,0,2.1467688,0,-60.338286)"
       gradientUnits="userSpaceOnUse" />
  </defs>
  <sodipodi:namedview
     id="base"
     pagecolor="#ffffff"
     bordercolor="#666666"
     borderopacity="1.0"
     inkscape:pageopacity="0.0"
     inkscape:pageshadow="2"
     inkscape:zoom="0.7"
     inkscape:cx="169.01872"
     inkscape:cy="530.2396"
     inkscape:document-units="mm"
     inkscape:current-layer="layer1"
     inkscape:document-rotation="0"
     showgrid="false"
     inkscape:snap-bbox="true"
     inkscape:bbox-paths="true"
     inkscape:bbox-nodes="true"
     inkscape:snap-bbox-edge-midpoints="true"
     inkscape:snap-bbox-midpoints="true" />
  <metadata
     id="metadata167287">
    <rdf:RDF>
      <cc:Work
         rdf:about="">
        <dc:format>image/svg+xml</dc:format>
        <dc:type
           rdf:resource="http://purl.org/dc/dcmitype/StillImage" />
        <dc:title></dc:title>
      </cc:Work>
    </rdf:RDF>
  </metadata>
  <g
     inkscape:label="Layer 1"
     inkscape:groupmode="layer"
     id="layer1">
    <ellipse
       style="fill:#87aade;fill-opacity:1;fill-rule:evenodd;stroke-width:0.264583"
       id="ellipse167296"
       cx="92.493881"
       cy="116.34912"
       rx="13.785498"
       ry="8.5760012" />
    <rect
       style="fill:#87aade;fill-opacity:1;fill-rule:nonzero;stroke:#884545;stroke-width:0.264999;stroke-miterlimit:4;stroke-dasharray:none;stroke-opacity:0"
       id="rect167294"
       width="27.306"
       height="40.744076"
       x="78.840881"
       y="75.472549" />
    <ellipse
       style="fill:#87aade;fill-rule:evenodd;stroke-width:0.365;fill-opacity:1;stroke:#b4caea;stroke-opacity:1;stroke-miterlimit:4;stroke-dasharray:none;stroke-dashoffset:0;stroke-linecap:round;stroke-linejoin:bevel;paint-order:normal"
       id="path167292"
       cx="92.493874"
       cy="75.34005"
       rx="13.785498"
       ry="8.5760012" />
    <path
       style="fill:#d2631b;stroke:#000000;stroke-width:0.264583px;stroke-linecap:butt;stroke-linejoin:miter;stroke-opacity:1;fill-opacity:1"
       d="m 89.384882,66.923344 c -0.750242,-1.454571 -2.0687,-3.142209 -1.852382,-4.87627 0.07761,-0.622088 0.554336,-0.581054 0.03631,-0.614955 -0.56066,-0.03669 -0.997826,-0.456396 -1.431475,-0.777856 -0.444011,-0.329139 -1.02429,-0.682316 -1.203685,-1.254453 -0.129135,-0.411848 -0.0127,-0.85524 -0.117173,-1.273787 -0.02413,-0.09664 -0.06635,-0.187838 -0.09952,-0.281757 -0.04892,-0.09364 -0.11932,-0.178893 -0.146762,-0.280913 -0.07206,-0.267886 -0.07153,-0.727414 -0.01765,-0.992032 0.163968,-0.805243 0.632794,-1.454978 0.858047,-2.236229 0.235889,-0.81815 0.05474,-1.699562 0.333367,-2.51042 0.314526,-0.915336 0.884118,-1.765689 1.323715,-2.622552 0.09597,-0.187074 0.323633,-0.65614 0.409186,-0.905116 0.08962,-0.260818 -0.01397,-0.144253 0.134155,-0.427678 0.275561,-0.527298 0.705334,-1.010769 1.156612,-1.390959 0.108461,-0.09138 0.512623,-0.36576 0.60487,-0.530561 0.056,-0.10005 0.05196,-0.223716 0.08859,-0.332359 0.131971,-0.391361 0.354785,-0.696116 0.548383,-1.049356 0.105564,-0.192612 0.13589,-0.438762 0.27251,-0.619157 0.285676,-0.377217 0.648073,-0.608259 1.072222,-0.822407 0.266745,-0.134676 0.580419,-0.160197 0.845267,-0.298566 0.05088,-0.02658 -0.161602,-0.226288 -0.0548,-0.424315 0.100576,-0.186489 0.255947,-0.34199 0.41675,-0.47996 0.737566,-0.632844 1.70425,-0.99623 2.379797,-1.696252 0.02138,-0.02217 -0.01476,-0.206462 -0.0042,-0.236198 0.03533,-0.09957 0.08113,-0.196088 0.136673,-0.285959 0.20538,-0.332333 0.303149,-0.433536 0.602348,-0.67228 0.09925,-0.07919 0.239143,-0.103476 0.327313,-0.194842 0.02188,-0.02267 -0.0284,-0.07779 -0.0016,-0.09448 0.415865,-0.259691 0.966081,-0.486212 1.454341,-0.592931 0.124042,-0.02711 0.262514,-0.10872 0.377073,-0.05396 0.06029,0.02881 -0.0928,0.09616 -0.139194,0.144241 -0.160049,0.165846 -0.106696,0.280736 -0.369512,0.47912 -0.751562,0.567304 -1.347274,1.200833 -1.950439,1.924884 -0.116978,0.140425 -0.418172,0.365257 -0.366991,0.620839 0.02074,0.10359 0.09503,0.188802 0.146762,0.280916 0.184171,0.327917 0.307075,0.595556 0.253849,0.987827 -0.0614,0.452523 -0.08755,0.134176 -0.27419,0.524677 -0.160843,0.336524 -0.347557,1.95684 -0.38481,2.275065 -0.07405,0.6326 -0.280636,1.545148 -0.0086,2.173859 0.288259,0.666141 0.708758,1.268762 1.026494,1.919171 0.04637,0.09492 0.121179,0.178411 0.146761,0.280916 0.0267,0.10696 -0.01281,0.22203 0.0059,0.330676 0.06951,0.403887 0.292852,0.824018 0.39977,1.221505 0.04798,0.17835 0.0738,0.567399 0.155167,0.753311 0.276424,0.631528 0.236943,0.353922 0.348329,0.986144 0.02474,0.140452 0.06117,0.281845 0.0548,0.424318 -0.0066,0.147259 -0.266698,0.560178 -0.17635,0.711954 0.04557,0.07655 0.134688,0.11766 0.19232,0.185597 0.07025,0.08281 0.404707,0.534014 0.436925,0.653788 0.02696,0.100211 0.01643,0.569304 -0.03463,0.709433 -0.123669,0.339444 -0.229828,0.231814 -0.179713,0.522996 0.130354,0.757396 0.07013,0.135274 0.490886,1.030867 0.11226,0.238943 0.189749,0.494512 0.249648,0.751628 0.074,0.317643 0.09079,0.725133 -0.02875,1.040112 -0.07769,0.204705 -0.254786,0.288187 -0.274193,0.524677 -0.02722,0.331721 0.031,0.366561 0.05985,0.707755 0.03911,0.462565 -0.103918,0.517332 -0.124907,0.947311 -0.0069,0.141573 0.03585,0.286266 0.0076,0.425157 -0.09187,0.451164 -0.245346,0.496339 -0.600665,0.766759 -0.09037,0.06878 -0.181798,0.137092 -0.280075,0.194001 -0.0431,0.02495 -0.09279,0.03683 -0.14088,0.04976 -0.01521,0.0041 -0.05453,-0.01312 -0.04724,7.93e-4 0.270436,0.517639 0.863859,0.888831 0.358415,1.553023 -0.37316,0.490362 -1.116793,0.822303 -1.682972,1.022289 -0.04455,0.01574 -0.09717,-0.0132 -0.141719,0.0026 -0.0145,0.0051 0.302496,0.23486 0.33572,0.277553 0.06193,0.07959 -0.111012,0.170778 -0.184756,0.239561 -0.320826,0.299244 -0.667758,0.47956 -1.075582,0.633447 -0.139787,0.05275 -0.290208,0.0801 -0.422635,0.149283 -0.11517,0.06017 -0.07707,0.159113 -0.232836,0.19316 -0.06154,0.01344 -0.126762,-0.0066 -0.188957,0.0034 -0.266502,0.04292 -0.482285,0.214857 -0.751631,0.249647 -0.0593,0.0076 -1.270524,0.04395 -1.321866,0.07077 -0.0413,0.02159 -0.507747,0.07514 -0.570778,0.140454"
       id="path167322"
       sodipodi:nodetypes="cssssscssssssssssssssssscssscsssssssssscsscscssssssssssssscssscsscsssssccsc" />
    <path
       style="fill:url(#radialGradient167346);stroke:#eeaa4d;stroke-width:0.264583px;stroke-linecap:butt;stroke-linejoin:miter;stroke-opacity:0.93730408;fill-opacity:1"
       d="m 89.384882,66.923344 c -0.750242,-1.454571 -2.0687,-3.142209 -1.852382,-4.87627 0.07761,-0.622088 0.554336,-0.581054 0.03631,-0.614955 -0.56066,-0.03669 -0.997826,-0.456396 -1.431475,-0.777856 -0.444011,-0.329139 -1.02429,-0.682316 -1.203685,-1.254453 -0.129135,-0.411848 -0.0127,-0.85524 -0.117173,-1.273787 -0.02413,-0.09664 -0.06635,-0.187838 -0.09952,-0.281757 -0.04892,-0.09364 -0.11932,-0.178893 -0.146762,-0.280913 -0.07206,-0.267886 -0.07153,-0.727414 -0.01765,-0.992032 0.163968,-0.805243 0.632794,-1.454978 0.858047,-2.236229 0.235889,-0.81815 0.05474,-1.699562 0.333367,-2.51042 0.314526,-0.915336 0.884118,-1.765689 1.323715,-2.622552 0.09597,-0.187074 0.323633,-0.65614 0.409186,-0.905116 0.08962,-0.260818 -0.01397,-0.144253 0.134155,-0.427678 0.275561,-0.527298 0.705334,-1.010769 1.156612,-1.390959 0.108461,-0.09138 0.512623,-0.36576 0.60487,-0.530561 0.056,-0.10005 0.05196,-0.223716 0.08859,-0.332359 0.131971,-0.391361 0.354785,-0.696116 0.548383,-1.049356 0.105564,-0.192612 0.13589,-0.438762 0.27251,-0.619157 0.285676,-0.377217 0.648073,-0.608259 1.072222,-0.822407 0.266745,-0.134676 0.580419,-0.160197 0.845267,-0.298566 0.05088,-0.02658 -0.161602,-0.226288 -0.0548,-0.424315 0.100576,-0.186489 0.255947,-0.34199 0.41675,-0.47996 0.737566,-0.632844 1.70425,-0.99623 2.379797,-1.696252 0.02138,-0.02217 -0.01476,-0.206462 -0.0042,-0.236198 0.03533,-0.09957 0.08113,-0.196088 0.136673,-0.285959 0.20538,-0.332333 0.303149,-0.433536 0.602348,-0.67228 0.09925,-0.07919 0.239143,-0.103476 0.327313,-0.194842 0.02188,-0.02267 -0.0284,-0.07779 -0.0016,-0.09448 0.415865,-0.259691 0.966081,-0.486212 1.454341,-0.592931 0.124042,-0.02711 0.262514,-0.10872 0.377073,-0.05396 0.06029,0.02881 -0.0928,0.09616 -0.139194,0.144241 -0.160049,0.165846 -0.106696,0.280736 -0.369512,0.47912 -0.751562,0.567304 -1.347274,1.200833 -1.950439,1.924884 -0.116978,0.140425 -0.418172,0.365257 -0.366991,0.620839 0.02074,0.10359 0.09503,0.188802 0.146762,0.280916 0.184171,0.327917 0.307075,0.595556 0.253849,0.987827 -0.0614,0.452523 -0.08755,0.134176 -0.27419,0.524677 -0.160843,0.336524 -0.347557,1.95684 -0.38481,2.275065 -0.07405,0.6326 -0.280636,1.545148 -0.0086,2.173859 0.288259,0.666141 0.708758,1.268762 1.026494,1.919171 0.04637,0.09492 0.121179,0.178411 0.146761,0.280916 0.0267,0.10696 -0.01281,0.22203 0.0059,0.330676 0.06951,0.403887 0.292852,0.824018 0.39977,1.221505 0.04798,0.17835 0.0738,0.567399 0.155167,0.753311 0.276424,0.631528 0.236943,0.353922 0.348329,0.986144 0.02474,0.140452 0.06117,0.281845 0.0548,0.424318 -0.0066,0.147259 -0.266698,0.560178 -0.17635,0.711954 0.04557,0.07655 0.134688,0.11766 0.19232,0.185597 0.07025,0.08281 0.404707,0.534014 0.436925,0.653788 0.02696,0.100211 0.01643,0.569304 -0.03463,0.709433 -0.123669,0.339444 -0.229828,0.231814 -0.179713,0.522996 0.130354,0.757396 0.07013,0.135274 0.490886,1.030867 0.11226,0.238943 0.189749,0.494512 0.249648,0.751628 0.074,0.317643 0.09079,0.725133 -0.02875,1.040112 -0.07769,0.204705 -0.254786,0.288187 -0.274193,0.524677 -0.02722,0.331721 0.031,0.366561 0.05985,0.707755 0.03911,0.462565 -0.103918,0.517332 -0.124907,0.947311 -0.0069,0.141573 0.03585,0.286266 0.0076,0.425157 -0.09187,0.451164 -0.245346,0.496339 -0.600665,0.766759 -0.09037,0.06878 -0.181798,0.137092 -0.280075,0.194001 -0.0431,0.02495 -0.09279,0.03683 -0.14088,0.04976 -0.01521,0.0041 -0.05453,-0.01312 -0.04724,7.93e-4 0.270436,0.517639 0.863859,0.888831 0.358415,1.553023 -0.37316,0.490362 -1.116793,0.822303 -1.682972,1.022289 -0.04455,0.01574 -0.09717,-0.0132 -0.141719,0.0026 -0.0145,0.0051 0.302496,0.23486 0.33572,0.277553 0.06193,0.07959 -0.111012,0.170778 -0.184756,0.239561 -0.320826,0.299244 -0.667758,0.47956 -1.075582,0.633447 -0.139787,0.05275 -0.290208,0.0801 -0.422635,0.149283 -0.11517,0.06017 -0.07707,0.159113 -0.232836,0.19316 -0.06154,0.01344 -0.126762,-0.0066 -0.188957,0.0034 -0.266502,0.04292 -0.482285,0.214857 -0.751631,0.249647 -0.0593,0.0076 -1.270524,0.04395 -1.321866,0.07077 -0.0413,0.02159 -0.507747,0.07514 -0.570778,0.140454"
       id="path167334"
       sodipodi:nodetypes="cssssscssssssssssssssssscssscsssssssssscsscscssssssssssssscssscsscsssssccsc" />
    <path
       style="fill:#071b37;stroke:#000000;stroke-width:0.264583px;stroke-linecap:butt;stroke-linejoin:miter;stroke-opacity:1;fill-opacity:1"
       d="m 91.611123,74.553814 c -0.179974,-2.603087 0.224433,-2.409798 -0.473352,-4.068082 -0.697786,-1.658284 -1.699887,-1.640454 -1.866787,-3.508666 -0.166896,-1.868212 0.545394,-3.150619 0.671875,-3.553836 0.126482,-0.403219 0.310259,-1.34208 0.844714,-1.351589 0.534453,-0.0095 1.203712,0.04541 1.748864,0.637161 0.545153,0.591752 0.01188,0.668068 0.09058,1.334948 0.07869,0.666879 0.01545,0.868487 -0.577488,1.346835 -0.592939,0.478345 -0.991402,0.61909 -1.183502,1.090305 -0.192098,0.471213 -0.385387,0.87562 -0.306695,1.5425 0.0787,0.66688 0.485479,0.99378 0.8314,1.655905 0.345922,0.662125 0.883942,0.853035 0.963825,1.586722 0.07988,0.733685 0.157387,1.333757 0.234894,1.933832 0.0775,0.600072 -0.109842,1.338511 -0.109842,1.338511 z"
       id="path167306" />
  </g>
</svg>
