<?xml version="1.0" encoding="UTF-8" standalone="no"?>
<svg
   xmlns:dc="http://purl.org/dc/elements/1.1/"
   xmlns:cc="http://creativecommons.org/ns#"
   xmlns:rdf="http://www.w3.org/1999/02/22-rdf-syntax-ns#"
   xmlns:svg="http://www.w3.org/2000/svg"
   xmlns="http://www.w3.org/2000/svg"
   xmlns:sodipodi="http://sodipodi.sourceforge.net/DTD/sodipodi-0.dtd"
   xmlns:inkscape="http://www.inkscape.org/namespaces/inkscape"
   width="210mm"
   height="297mm"
   viewBox="0 0 210 297"
   version="1.1"
   id="svg85"
   inkscape:version="1.0.1 (3bc2e813f5, 2020-09-07)"
   sodipodi:docname="Task2.svg">
  <defs
     id="defs79" />
  <sodipodi:namedview
     id="base"
     pagecolor="#ffffff"
     bordercolor="#666666"
     borderopacity="1.0"
     inkscape:pageopacity="0.0"
     inkscape:pageshadow="2"
     inkscape:zoom="0.98994949"
     inkscape:cx="396.73896"
     inkscape:cy="405.95539"
     inkscape:document-units="mm"
     inkscape:current-layer="layer1"
     inkscape:document-rotation="0"
     showgrid="false"
     showguides="false"
     inkscape:guide-bbox="true" />
  <metadata
     id="metadata82">
    <rdf:RDF>
      <cc:Work
         rdf:about="">
        <dc:format>image/svg+xml</dc:format>
        <dc:type
           rdf:resource="http://purl.org/dc/dcmitype/StillImage" />
        <dc:title></dc:title>
      </cc:Work>
    </rdf:RDF>
  </metadata>
  <g
     inkscape:label="Layer 1"
     inkscape:groupmode="layer"
     id="layer1">
    <path
       id="path87"
       style="fill:#ccff00;stroke-width:0.264999;stroke-miterlimit:4;stroke-dasharray:none"
       d="M 73.632872,26.459464 A 27.395125,36.749561 0 0 0 46.237644,63.209157 27.395125,36.749561 0 0 0 73.632872,99.958853 27.395125,36.749561 0 0 0 101.0281,63.209157 27.395125,36.749561 0 0 0 73.632872,26.459464 Z m -0.03566,10.958505 a 19.226397,25.79151 0 0 1 0.03566,0 A 19.226397,25.79151 0 0 1 92.859086,63.209157 19.226397,25.79151 0 0 1 73.632872,89.000865 19.226397,25.79151 0 0 1 54.406138,63.209157 19.226397,25.79151 0 0 1 73.597214,37.417969 Z" />
    <path
       id="path932"
       style="fill:#ccff00;stroke-width:0.264999;stroke-miterlimit:4;stroke-dasharray:none"
       d="M 126.0177,26.994003 A 27.395125,36.749561 0 0 0 98.622471,63.743696 27.395125,36.749561 0 0 0 126.0177,100.49339 27.395125,36.749561 0 0 0 153.41293,63.743696 27.395125,36.749561 0 0 0 126.0177,26.994003 Z m -0.0357,10.958505 a 19.226397,25.79151 0 0 1 0.0357,0 19.226397,25.79151 0 0 1 19.22621,25.791188 19.226397,25.79151 0 0 1 -19.22621,25.791708 19.226397,25.79151 0 0 1 -19.22673,-25.791708 19.226397,25.79151 0 0 1 19.19107,-25.791188 z" />
    <rect
       style="fill:#ccff00;stroke-width:0.264999;stroke-miterlimit:4;stroke-dasharray:none"
       id="rect934"
       width="13.967084"
       height="157.42175"
       x="92.878662"
       y="31.805073" />
    <path
       id="rect936"
       style="fill:#ccff00;stroke-width:0.264998;stroke-miterlimit:4;stroke-dasharray:none"
       d="m 74.532414,152.32455 v 7.34787 h 16.37957 v 6.0477 h -16.37957 v 10.111 h 16.37957 v 6.0477 h -16.37957 v 7.34787 h 18.346153 v -36.90214 z" />
  </g>
</svg>
