<?xml version="1.0" encoding="UTF-8" standalone="no"?>
<svg
   xmlns:dc="http://purl.org/dc/elements/1.1/"
   xmlns:cc="http://creativecommons.org/ns#"
   xmlns:rdf="http://www.w3.org/1999/02/22-rdf-syntax-ns#"
   xmlns:svg="http://www.w3.org/2000/svg"
   xmlns="http://www.w3.org/2000/svg"
   xmlns:sodipodi="http://sodipodi.sourceforge.net/DTD/sodipodi-0.dtd"
   xmlns:inkscape="http://www.inkscape.org/namespaces/inkscape"
   width="210mm"
   height="297mm"
   viewBox="0 0 210 297"
   version="1.1"
   id="svg1100"
   inkscape:version="1.0.1 (3bc2e813f5, 2020-09-07)"
   sodipodi:docname="Task4.svg"
   inkscape:export-filename="C:\Users\Vladislav\Desktop\Компьютерная графика новая\Выполненные задания\Лабораторная работа 4\Task4.png"
   inkscape:export-xdpi="191.39783"
   inkscape:export-ydpi="191.39783">
  <defs
     id="defs1094" />
  <sodipodi:namedview
     id="base"
     pagecolor="#ffffff"
     bordercolor="#666666"
     borderopacity="1.0"
     inkscape:pageopacity="0.0"
     inkscape:pageshadow="2"
     inkscape:zoom="0.98994949"
     inkscape:cx="402.09122"
     inkscape:cy="397.84122"
     inkscape:document-units="mm"
     inkscape:current-layer="layer1"
     inkscape:document-rotation="0"
     showgrid="false"
     inkscape:lockguides="true" />
  <metadata
     id="metadata1097">
    <rdf:RDF>
      <cc:Work
         rdf:about="">
        <dc:format>image/svg+xml</dc:format>
        <dc:type
           rdf:resource="http://purl.org/dc/dcmitype/StillImage" />
        <dc:title></dc:title>
      </cc:Work>
    </rdf:RDF>
  </metadata>
  <g
     inkscape:label="Layer 1"
     inkscape:groupmode="layer"
     id="layer1">
    <g
       aria-label="It is an Inkscape session "
       id="text1116"
       style="font-style:normal;font-weight:normal;font-size:10.5833px;line-height:1.25;font-family:sans-serif;fill:#000000;fill-opacity:1;stroke:none;stroke-width:0.264583">
      <path
         d="m 74.193346,125.40092 q -0.09569,-0.2511 -0.389255,-1.42775 -0.914275,0.271 -2.387079,0.83227 l -2.170001,0.82143 q 0.259236,0.63671 0.513187,1.3031 0.110413,0.28973 -0.01097,0.55166 -0.119546,0.26677 -0.389962,0.36982 -0.270417,0.10305 -0.53718,-0.0165 -0.260095,-0.11656 -0.370508,-0.40629 -0.103052,-0.27042 -0.323644,-0.80573 -0.215763,-0.53715 -0.318815,-0.80757 -0.121455,-0.3187 -0.446455,-0.92483 -0.329829,-0.60429 -0.451283,-0.92299 -0.110414,-0.28973 0.0043,-0.55466 0.121386,-0.26193 0.391803,-0.36499 0.270416,-0.10305 0.535339,0.0117 0.266764,0.11955 0.377177,0.40928 0.125135,0.32836 0.401833,0.83676 0.566126,-0.2268 2.178967,-0.84144 1.313452,-0.50054 2.542986,-0.8585 l -0.428301,-1.03682 q -0.110414,-0.28973 0.0025,-0.55948 0.114717,-0.26493 0.394791,-0.37166 0.284903,-0.10857 0.53718,0.0165 0.23227,0.11611 0.355786,0.36766 0.200571,0.41022 0.601739,1.46291 0.360684,0.94646 0.7265,2.51587 0.144257,0.62523 -0.440036,0.8479 -0.309048,0.11778 -0.579727,-0.0556 -0.225144,-0.14094 -0.320835,-0.39204 z"
         style="font-style:normal;font-variant:normal;font-weight:bold;font-stretch:normal;font-size:10.5833px;font-family:'Comic Sans MS';-inkscape-font-specification:'Comic Sans MS, Bold';font-variant-ligatures:normal;font-variant-caps:normal;font-variant-numeric:normal;font-variant-east-asian:normal;stroke-width:0.264583"
         id="path1215" />
      <path
         d="m 74.403492,130.19486 q -0.04912,-0.0968 -0.112351,-0.23273 -0.05628,-0.1337 -0.105405,-0.23047 -0.09591,-0.18892 -0.259085,-0.41903 -1.819479,1.02797 -2.390856,1.31803 -0.0599,0.0304 -0.223448,0.11923 -0.158936,0.0865 -0.26031,0.13794 -1.059812,0.53801 -1.398994,-0.13013 -0.128656,-0.25344 -0.06556,-0.51728 0.06296,-0.28696 0.311785,-0.41328 0.165884,-0.0842 0.504669,-0.2388 0.338785,-0.1546 0.504669,-0.23881 0.557553,-0.28304 2.344777,-1.29464 -0.131206,-0.29271 -0.366041,-0.90371 -0.227888,-0.60874 0.306626,-0.88008 0.258041,-0.131 0.526638,-0.0471 0.268596,0.0839 0.408948,0.36035 0.08655,0.17049 0.342367,0.81141 0.145113,-0.0795 0.476739,-0.27099 0.285548,-0.16814 0.446824,-0.25002 0.258041,-0.13099 0.524439,-0.0286 0.266399,0.10238 0.402072,0.36963 0.346199,0.68197 -0.801163,1.26443 l -0.382525,0.1826 q 0.1865,0.26463 0.277729,0.44434 0.269006,0.52991 0.298134,0.75852 0.05811,0.43413 -0.375027,0.65402 -0.262649,0.13333 -0.528977,0.0425 -0.266328,-0.0908 -0.406679,-0.36729 z"
         style="font-style:normal;font-variant:normal;font-weight:bold;font-stretch:normal;font-size:10.5833px;font-family:'Comic Sans MS';-inkscape-font-specification:'Comic Sans MS, Bold';font-variant-ligatures:normal;font-variant-caps:normal;font-variant-numeric:normal;font-variant-east-asian:normal;stroke-width:0.264583"
         id="path1217" />
      <path
         d="m 79.554118,134.32242 q -0.197377,-0.26538 -0.164026,-0.59287 0.03335,-0.3275 0.290432,-0.51871 0.257081,-0.19121 0.580328,-0.12893 0.323247,0.0623 0.520623,0.32764 0.197376,0.26538 0.160942,0.58873 -0.03335,0.32749 -0.290432,0.5187 -0.257081,0.19121 -0.580328,0.12894 -0.320163,-0.0581 -0.517539,-0.3235 z m -2.777228,2.61303 q -0.236349,0.17578 -0.749553,0.57681 -0.51012,0.40517 -0.746469,0.58096 -0.240496,0.17887 -0.518338,0.13435 -0.273696,-0.0476 -0.458737,-0.29639 -0.18504,-0.24879 -0.151897,-0.52461 0.03729,-0.27891 0.277786,-0.45778 0.236349,-0.17579 0.746469,-0.58096 0.513205,-0.40102 0.749554,-0.57681 0.369036,-0.27448 0.955504,-0.64627 0.586468,-0.37179 0.955505,-0.64627 0.240495,-0.17887 0.514191,-0.13127 0.277843,0.0445 0.462883,0.29331 0.18504,0.24879 0.14775,0.5277 -0.03314,0.27582 -0.273639,0.45469 -0.369036,0.27448 -0.955504,0.64627 -0.586468,0.37179 -0.955505,0.64627 z"
         style="font-style:normal;font-variant:normal;font-weight:bold;font-stretch:normal;font-size:10.5833px;font-family:'Comic Sans MS';-inkscape-font-specification:'Comic Sans MS, Bold';font-variant-ligatures:normal;font-variant-caps:normal;font-variant-numeric:normal;font-variant-east-asian:normal;stroke-width:0.264583"
         id="path1219" />
      <path
         d="m 80.880016,139.70759 q -0.33733,-0.38462 -0.08301,-0.74514 -0.109099,-0.17925 -0.252209,-0.34243 -0.821175,-0.93632 -1.077593,-0.71143 -0.15152,0.13289 0.08613,0.92112 0.321112,1.07932 0.361486,1.52506 0.08613,0.92112 -0.426707,1.37089 -0.668242,0.58606 -1.559197,0.2677 -0.715394,-0.25926 -1.355979,-0.98966 -0.45318,-0.51672 -0.6687,-1.08379 -0.293538,-0.77358 0.129941,-1.14499 0.388513,-0.34073 0.79399,0.1216 0.156738,0.17871 0.340511,0.61553 0.183772,0.43682 0.343918,0.61942 0.691696,0.78869 1.013683,0.51317 0.198142,-0.17378 -0.04142,-0.93284 -0.348371,-1.11041 -0.390593,-1.47204 -0.09581,-0.88513 0.455877,-1.36898 0.780911,-0.68488 1.778639,-0.0959 0.585211,0.34594 1.454089,1.33665 0.340737,0.38851 0.403277,0.66359 0.08891,0.37567 -0.276295,0.69597 -0.699323,0.61332 -1.029837,0.23646 z"
         style="font-style:normal;font-variant:normal;font-weight:bold;font-stretch:normal;font-size:10.5833px;font-family:'Comic Sans MS';-inkscape-font-specification:'Comic Sans MS, Bold';font-variant-ligatures:normal;font-variant-caps:normal;font-variant-numeric:normal;font-variant-east-asian:normal;stroke-width:0.264583"
         id="path1221" />
      <path
         d="m 85.783609,149.40341 q -0.18902,-0.14414 -0.286577,-0.86842 -0.515919,-0.10748 -0.872498,-0.23643 -0.359712,-0.12484 -0.56106,-0.27839 -0.990304,-0.75519 -1.083279,-1.66443 -0.08887,-0.90611 0.716463,-1.96216 0.755191,-0.9903 2.022461,-1.13519 1.270402,-0.149 2.28947,0.62813 0.390369,0.29769 0.734799,0.91128 0.416798,0.74026 0.147311,1.09365 -0.112809,0.14793 -0.291926,0.18681 -0.166434,0.13303 -0.382237,0.36488 -0.20856,0.23088 -0.46238,0.56372 -0.598513,0.78485 -0.750787,1.21462 -0.01587,0.0464 -0.136871,0.5715 -0.109231,0.4756 -0.146834,0.52491 -0.166079,0.21778 -0.444229,0.23312 -0.274041,0.0185 -0.491826,-0.1476 z m 1.130565,-3.596 q 0.100275,-0.13149 0.245188,-0.28743 0.152156,-0.15692 0.348951,-0.33828 -0.05085,-0.10377 -0.10406,-0.17034 -0.04597,-0.0675 -0.09117,-0.10202 -0.558844,-0.42616 -1.313269,-0.30611 -0.751292,0.11594 -1.189993,0.69122 -0.419899,0.55063 -0.435743,0.98046 -0.01271,0.42573 0.381767,0.72655 0.254767,0.19428 0.543441,0.28445 0.295918,0.0892 0.622609,0.0784 0.622516,-1.07198 0.992278,-1.55686 z"
         style="font-style:normal;font-variant:normal;font-weight:bold;font-stretch:normal;font-size:10.5833px;font-family:'Comic Sans MS';-inkscape-font-specification:'Comic Sans MS, Bold';font-variant-ligatures:normal;font-variant-caps:normal;font-variant-numeric:normal;font-variant-east-asian:normal;stroke-width:0.264583"
         id="path1223" />
      <path
         d="m 90.469097,152.34716 q -0.545324,-0.32655 -0.286159,-0.90017 0.211379,-0.49383 0.425412,-0.99208 0.225529,-0.52751 0.483048,-0.95757 0.06903,-0.11527 0.249581,-0.38661 0.184989,-0.2687 0.254015,-0.38397 0.01858,-0.031 0.101786,-0.14986 0.08586,-0.12327 0.133644,-0.20307 0.220352,-0.36798 0.02971,-0.48214 -0.407885,-0.24425 -1.089192,-0.002 -0.674218,0.24077 -1.333943,0.83956 -0.09648,0.141 -0.273527,0.36626 -0.146069,0.18358 -0.260227,0.37422 -0.07434,0.12414 -0.19906,0.39278 -0.117636,0.26686 -0.191971,0.391 -0.151326,0.25271 -0.426896,0.31056 -0.273791,0.0649 -0.539803,-0.0944 -0.266012,-0.15929 -0.338036,-0.4313 -0.07468,-0.26758 0.07665,-0.52029 0.07434,-0.12414 0.196405,-0.38835 0.124725,-0.26864 0.19906,-0.39278 0.254864,-0.42562 0.770911,-1.14658 0.516046,-0.72097 0.77091,-1.14659 0.07964,-0.133 0.218547,-0.4052 0.145989,-0.27398 0.222979,-0.40255 0.148671,-0.24828 0.421587,-0.30169 0.280003,-0.0552 0.541582,0.10144 0.580793,0.34778 0.203885,1.06774 l -0.02477,0.0514 q 1.037556,-0.26413 1.755789,0.16596 0.837937,0.50176 0.737688,1.39341 -0.0686,0.59738 -0.628774,1.53286 l -0.188493,0.31478 q -0.126556,0.20129 -0.176998,0.28552 -0.207077,0.34582 -0.440518,0.9469 -0.229007,0.60373 -0.433429,0.94511 -0.148671,0.24828 -0.424241,0.30612 -0.27557,0.0579 -0.537149,-0.0988 z"
         style="font-style:normal;font-variant:normal;font-weight:bold;font-stretch:normal;font-size:10.5833px;font-family:'Comic Sans MS';-inkscape-font-specification:'Comic Sans MS, Bold';font-variant-ligatures:normal;font-variant-caps:normal;font-variant-numeric:normal;font-variant-east-asian:normal;stroke-width:0.264583"
         id="path1225" />
      <path
         d="m 102.3172,150.36566 q -0.25344,-0.0893 -1.34096,-0.62597 -0.38426,0.87274 -0.90811,2.35927 l -0.776044,2.18664 q 0.653375,0.21381 1.325964,0.45083 0.29243,0.10305 0.41381,0.36499 0.12625,0.26366 0.0301,0.53659 -0.0962,0.27294 -0.35984,0.39919 -0.25706,0.1231 -0.54949,0.02 -0.272936,-0.0962 -0.82396,-0.27392 -0.549307,-0.18262 -0.822242,-0.2788 -0.321675,-0.11336 -0.994221,-0.25722 -0.674264,-0.13898 -0.995938,-0.25234 -0.292431,-0.10305 -0.420402,-0.36183 -0.121378,-0.26194 -0.0252,-0.53488 0.09618,-0.27293 0.354964,-0.4009 0.263655,-0.12626 0.556087,-0.0232 0.331421,0.11679 0.898182,0.23433 0.192922,-0.57855 0.76658,-2.20642 0.46717,-1.32569 0.988879,-2.49518 l -1.067931,-0.34346 q -0.292431,-0.10305 -0.425275,-0.36355 -0.12797,-0.25878 -0.02835,-0.54147 0.101335,-0.28755 0.359838,-0.39918 0.238729,-0.10217 0.510505,-0.0338 0.442639,0.11216 1.505143,0.48658 0.95527,0.33664 2.38915,1.07206 0.57029,0.29411 0.36247,0.88385 -0.10993,0.31192 -0.41717,0.40638 -0.25307,0.0807 -0.50651,-0.009 z"
         style="font-style:normal;font-variant:normal;font-weight:bold;font-stretch:normal;font-size:10.5833px;font-family:'Comic Sans MS';-inkscape-font-specification:'Comic Sans MS, Bold';font-variant-ligatures:normal;font-variant-caps:normal;font-variant-numeric:normal;font-variant-east-asian:normal;stroke-width:0.264583"
         id="path1227" />
      <path
         d="m 105.48196,157.79515 q -0.61923,-0.14337 -0.54867,-0.76886 0.0496,-0.53487 0.10032,-1.07477 0.0527,-0.57127 0.16577,-1.05961 0.0303,-0.1309 0.11885,-0.44457 0.0936,-0.31251 0.12388,-0.4434 0.008,-0.0352 0.0509,-0.17388 0.0439,-0.14367 0.0648,-0.23429 0.0968,-0.41785 -0.11973,-0.46798 -0.46317,-0.10724 -1.03713,0.33274 -0.56775,0.43611 -1.01181,1.20851 -0.0485,0.16381 -0.14788,0.43254 -0.0827,0.21956 -0.13279,0.43604 -0.0326,0.14096 -0.0689,0.43492 -0.03,0.29009 -0.0627,0.43105 -0.0664,0.28697 -0.31095,0.42662 -0.24064,0.14585 -0.5427,0.0759 -0.30207,-0.0699 -0.45412,-0.30671 -0.15321,-0.23174 -0.0868,-0.5187 0.0326,-0.14096 0.0677,-0.42989 0.0362,-0.29395 0.0689,-0.43492 0.1119,-0.4833 0.38171,-1.32788 0.2698,-0.84457 0.38171,-1.32787 0.035,-0.15104 0.0836,-0.45273 0.0548,-0.30557 0.0886,-0.45156 0.0653,-0.28193 0.30862,-0.41655 0.24954,-0.13848 0.54657,-0.0697 0.65951,0.1527 0.52182,0.9536 l -0.008,0.0565 q 0.90638,-0.56987 1.72196,-0.38104 0.95151,0.22031 1.12982,1.09967 0.11809,0.58961 -0.12786,1.65187 l -0.0828,0.35745 q -0.0587,0.23042 -0.0808,0.32607 -0.0909,0.39269 -0.12857,1.03641 -0.0326,0.64488 -0.12237,1.03253 -0.0653,0.28193 -0.30979,0.42158 -0.2445,0.13965 -0.54154,0.0709 z"
         style="font-style:normal;font-variant:normal;font-weight:bold;font-stretch:normal;font-size:10.5833px;font-family:'Comic Sans MS';-inkscape-font-specification:'Comic Sans MS, Bold';font-variant-ligatures:normal;font-variant-caps:normal;font-variant-numeric:normal;font-variant-east-asian:normal;stroke-width:0.264583"
         id="path1229" />
      <path
         d="m 111.30137,158.43227 q -0.40548,-0.0474 -0.57032,-0.46208 -0.1969,-0.49647 -0.6255,-1.19173 -0.66437,-1.08181 -0.70336,-1.1488 -0.44602,0.25483 -0.73152,0.38274 -0.13472,0.70744 -0.21093,1.35929 -0.0348,0.2977 -0.25777,0.46934 -0.22298,0.17164 -0.53094,0.13564 -0.7237,-0.0846 -0.6229,-0.94689 0.0474,-0.40548 0.19806,-1.20471 0.1564,-0.80377 0.2038,-1.20925 0.087,-0.74424 0.21913,-1.69651 0.13787,-0.95681 0.22367,-1.69079 0.0258,-0.2207 0.0349,-0.5214 0.0149,-0.30522 0.0407,-0.52593 0.0348,-0.29769 0.25718,-0.4642 0.22297,-0.17164 0.53093,-0.13564 0.30796,0.036 0.48534,0.25444 0.17797,0.21331 0.14317,0.51101 -0.0264,0.22583 -0.0367,0.53679 -0.0103,0.31096 -0.0367,0.5368 -0.0714,0.61079 -0.2,1.44382 -0.1244,0.79709 -0.19247,1.42388 0.76105,-0.45733 2.35414,-1.71228 0.25224,-0.19943 0.53967,-0.16583 0.28743,0.0336 0.48353,0.26984 0.1961,0.23624 0.1637,0.5134 -0.0276,0.23611 -0.25357,0.43341 -0.68486,0.60671 -1.60789,1.24802 l 0.90679,1.50036 q 0.65443,1.12226 0.61423,1.46615 -0.033,0.2823 -0.28164,0.45094 -0.24923,0.17378 -0.53666,0.14017 z"
         style="font-style:normal;font-variant:normal;font-weight:bold;font-stretch:normal;font-size:10.5833px;font-family:'Comic Sans MS';-inkscape-font-specification:'Comic Sans MS, Bold';font-variant-ligatures:normal;font-variant-caps:normal;font-variant-numeric:normal;font-variant-east-asian:normal;stroke-width:0.264583"
         id="path1231" />
      <path
         d="m 116.36639,154.55846 q -0.51158,-0.004 -0.61122,-0.43421 -0.20639,-0.038 -0.42342,-0.0398 -1.24535,-0.0108 -1.2483,0.33028 -0.002,0.20153 0.74459,0.54906 1.01909,0.47908 1.37853,0.74574 0.74459,0.54906 0.73869,1.23116 -0.008,0.8888 -0.83844,1.34156 -0.66978,0.36112 -1.64125,0.35273 -0.68727,-0.006 -1.25386,-0.22272 -0.77261,-0.29608 -0.76774,-0.85933 0.004,-0.51674 0.61939,-0.51143 0.2377,0.002 0.68597,0.1558 0.44827,0.15374 0.69114,0.15584 1.04899,0.009 1.05782,-0.41462 0.002,-0.26354 -0.72356,-0.59022 -1.06043,-0.47943 -1.35835,-0.68872 -0.72419,-0.51788 -0.71784,-1.25165 0.009,-1.03866 1.11276,-1.39086 0.64776,-0.20628 1.96546,-0.19489 0.51674,0.004 0.76362,0.14096 0.33949,0.18381 0.33529,0.66955 -0.008,0.93014 -0.50928,0.9258 z"
         style="font-style:normal;font-variant:normal;font-weight:bold;font-stretch:normal;font-size:10.5833px;font-family:'Comic Sans MS';-inkscape-font-specification:'Comic Sans MS, Bold';font-variant-ligatures:normal;font-variant-caps:normal;font-variant-numeric:normal;font-variant-east-asian:normal;stroke-width:0.264583"
         id="path1233" />
      <path
         d="m 120.24792,158.40127 q -1.13161,0.10939 -1.96016,-0.45949 -0.87318,-0.6009 -0.98058,-1.71193 -0.0989,-1.02359 0.52091,-2.18415 0.70267,-1.32431 1.79312,-1.42972 0.53494,-0.0517 1.27775,0.16723 0.90359,0.27089 0.94833,0.73382 0.0244,0.25204 -0.13163,0.4644 -0.16478,0.22879 -0.45797,0.25713 -0.22118,0.0214 -0.55781,-0.1849 -0.33199,-0.21192 -0.95437,-0.15176 -0.39606,0.0383 -0.78391,0.85972 -0.36977,0.79373 -0.31707,1.33896 0.0522,0.54008 0.47296,0.81091 0.39868,0.25739 1.00563,0.19873 0.34463,-0.0333 0.8182,-0.34387 0.47358,-0.31055 0.60732,-0.32348 0.27775,-0.0268 0.4926,0.15486 0.22,0.18121 0.24485,0.4384 0.0388,0.4012 -0.79685,0.88693 -0.74753,0.43048 -1.24132,0.47821 z"
         style="font-style:normal;font-variant:normal;font-weight:bold;font-stretch:normal;font-size:10.5833px;font-family:'Comic Sans MS';-inkscape-font-specification:'Comic Sans MS, Bold';font-variant-ligatures:normal;font-variant-caps:normal;font-variant-numeric:normal;font-variant-east-asian:normal;stroke-width:0.264583"
         id="path1235" />
      <path
         d="m 127.69434,157.14837 q -0.23259,0.0491 -0.8449,-0.34987 -0.41824,0.32063 -0.74871,0.50655 -0.3294,0.19097 -0.57716,0.24325 -1.21857,0.25711 -1.96801,-0.26607 -0.74438,-0.52424 -1.01856,-1.82371 -0.25711,-1.21857 0.46049,-2.2731 0.71652,-1.05958 1.97048,-1.32416 0.48035,-0.10135 1.17,0.0383 0.83285,0.16756 0.9246,0.60241 0.0384,0.18202 -0.0491,0.34308 -0.008,0.21292 0.0268,0.52776 0.0387,0.30871 0.12515,0.71827 0.20376,0.96575 0.4299,1.36168 0.0248,0.0423 0.34354,0.47678 0.28894,0.39323 0.30175,0.45391 0.0565,0.26798 -0.11343,0.4887 -0.16491,0.21964 -0.4329,0.27618 z m -1.98582,-3.20404 q -0.0341,-0.16181 -0.0576,-0.37338 -0.0195,-0.2177 -0.0284,-0.48517 -0.11179,-0.0292 -0.19696,-0.0324 -0.0812,-0.009 -0.1368,0.002 -0.68766,0.14509 -1.08925,0.79493 -0.40265,0.64479 -0.2533,1.35267 0.14296,0.67755 0.45821,0.97017 0.31418,0.28756 0.79959,0.18514 0.31349,-0.0661 0.57025,-0.22594 0.26075,-0.16593 0.46583,-0.42046 -0.4056,-1.17139 -0.53149,-1.76803 z"
         style="font-style:normal;font-variant:normal;font-weight:bold;font-stretch:normal;font-size:10.5833px;font-family:'Comic Sans MS';-inkscape-font-specification:'Comic Sans MS, Bold';font-variant-ligatures:normal;font-variant-caps:normal;font-variant-numeric:normal;font-variant-east-asian:normal;stroke-width:0.264583"
         id="path1237" />
      <path
         d="m 131.36511,155.99333 q -0.42182,0.1399 -0.92033,0.19634 l 0.6588,2.00283 q 0.0944,0.28448 -0.0351,0.53431 -0.12948,0.24983 -0.42377,0.34744 -0.2943,0.0976 -0.5474,-0.0254 -0.25311,-0.12294 -0.34746,-0.40742 -0.0765,-0.23054 -0.59696,-1.83279 -0.38386,-1.19024 -0.64256,-1.93744 -0.36608,-1.05458 -0.67381,-1.80185 -0.42332,-1.03015 -0.39404,-0.94187 -0.13501,-0.4071 -0.0495,-0.75668 0.10192,-0.39858 0.45998,-0.51733 0.27467,-0.0911 0.52288,0.0335 0.2482,0.12457 0.33442,0.38453 l 0.0114,0.0507 q 0.26681,-0.29538 0.56616,-0.49266 0.30262,-0.20381 0.63616,-0.31442 1.12813,-0.37415 1.96526,0.40987 0.62662,0.59251 1.00727,1.74026 0.35625,1.07418 -0.0226,1.98383 -0.40512,0.97824 -1.50872,1.34425 z m -1.00687,-4.1686 q -0.309,0.10248 -0.57902,0.35537 -0.27165,0.24797 -0.49939,0.64473 0.39396,0.99089 0.73069,2.0062 0.48371,-0.003 0.92025,-0.14731 0.50521,-0.16755 0.65623,-0.61508 0.13788,-0.40506 -0.0443,-0.95441 -0.2196,-0.66216 -0.36305,-0.8977 -0.3407,-0.55122 -0.82139,-0.3918 z"
         style="font-style:normal;font-variant:normal;font-weight:bold;font-stretch:normal;font-size:10.5833px;font-family:'Comic Sans MS';-inkscape-font-specification:'Comic Sans MS, Bold';font-variant-ligatures:normal;font-variant-caps:normal;font-variant-numeric:normal;font-variant-east-asian:normal;stroke-width:0.264583"
         id="path1239" />
      <path
         d="m 136.82467,153.74702 q -1.12098,0.51847 -2.08119,0.31351 -1.0613,-0.22653 -1.55807,-1.30059 -0.54884,-1.18664 -0.30466,-2.29595 0.27331,-1.23097 1.45056,-1.77546 0.81611,-0.37746 1.47697,-0.36428 0.86876,0.0195 1.20717,0.7512 0.23862,0.51592 -0.15389,1.18142 -0.17805,0.3044 -0.808,1.02278 l -1.25739,1.42991 q 0.33793,0.13976 0.71327,0.1142 0.37534,-0.0256 0.78808,-0.21647 0.6285,-0.29069 0.94538,-0.7504 0.28299,-0.40987 0.51751,-0.51834 0.48778,-0.2256 0.70688,0.24811 0.2473,0.53469 -0.37978,1.23466 -0.52648,0.58512 -1.26284,0.9257 z m -1.96838,-3.92345 q -0.4362,0.20174 -0.61126,0.63571 -0.17506,0.43397 -0.0937,1.10234 0.4237,-0.47496 0.84488,-0.94305 0.50086,-0.57896 0.76327,-0.9964 -0.39668,-0.0329 -0.90322,0.2014 z"
         style="font-style:normal;font-variant:normal;font-weight:bold;font-stretch:normal;font-size:10.5833px;font-family:'Comic Sans MS';-inkscape-font-specification:'Comic Sans MS, Bold';font-variant-ligatures:normal;font-variant-caps:normal;font-variant-numeric:normal;font-variant-east-asian:normal;stroke-width:0.264583"
         id="path1241" />
      <path
         d="m 144.31214,144.47732 q -0.4123,0.30289 -0.74953,0.0184 -0.188,0.0932 -0.36291,0.22173 -1.00367,0.73734 -0.80174,1.0122 0.11932,0.16242 0.92511,-0.006 1.10301,-0.22681 1.55056,-0.22858 0.92512,-0.006 1.32897,0.54338 0.52624,0.71631 0.1322,1.57648 -0.32001,0.69036 -1.10295,1.26555 -0.55389,0.40691 -1.13743,0.57271 -0.79603,0.22571 -1.12951,-0.22823 -0.30595,-0.41646 0.18963,-0.78054 0.19157,-0.14074 0.64262,-0.28615 0.45104,-0.1454 0.64678,-0.2892 0.84541,-0.62108 0.5987,-0.96563 -0.15604,-0.2124 -0.93293,-0.0392 -1.13632,0.25128 -1.50025,0.26215 -0.8901,0.0191 -1.32455,-0.57228 -0.61496,-0.83708 0.0579,-1.78027 0.39514,-0.55319 1.45711,-1.33336 0.41645,-0.30595 0.6959,-0.34453 0.38195,-0.0562 0.66954,0.3353 0.55071,0.74963 0.14675,1.0464 z"
         style="font-style:normal;font-variant:normal;font-weight:bold;font-stretch:normal;font-size:10.5833px;font-family:'Comic Sans MS';-inkscape-font-specification:'Comic Sans MS, Bold';font-variant-ligatures:normal;font-variant-caps:normal;font-variant-numeric:normal;font-variant-east-asian:normal;stroke-width:0.264583"
         id="path1243" />
      <path
         d="m 149.8311,145.00971 q -0.90931,0.83579 -1.88627,0.93361 -1.0798,0.10813 -1.88062,-0.76313 -0.88476,-0.96256 -0.99073,-2.09348 -0.11534,-1.25565 0.83961,-2.13341 0.66201,-0.60849 1.29537,-0.79759 0.83328,-0.24651 1.37882,0.34701 0.38467,0.4185 0.21395,1.17203 -0.0767,0.34422 -0.45737,1.22056 l -0.76109,1.74539 q 0.36446,0.03 0.7141,-0.10889 0.34964,-0.13888 0.68444,-0.44662 0.50982,-0.46861 0.67131,-1.00309 0.14443,-0.47668 0.33466,-0.65153 0.39568,-0.36369 0.74888,0.0206 0.39866,0.43373 0.0151,1.29167 -0.32282,0.71786 -0.92014,1.2669 z m -3.07172,-3.1357 q -0.35383,0.32523 -0.38812,0.79192 -0.0343,0.46669 0.24717,1.07834 0.25856,-0.58159 0.51682,-1.15588 0.3003,-0.70418 0.42282,-1.18178 -0.38779,0.0897 -0.79869,0.4674 z"
         style="font-style:normal;font-variant:normal;font-weight:bold;font-stretch:normal;font-size:10.5833px;font-family:'Comic Sans MS';-inkscape-font-specification:'Comic Sans MS, Bold';font-variant-ligatures:normal;font-variant-caps:normal;font-variant-numeric:normal;font-variant-east-asian:normal;stroke-width:0.264583"
         id="path1245" />
      <path
         d="m 151.60212,137.30557 q -0.33666,0.38522 -0.72763,0.1808 -0.16326,0.13184 -0.30608,0.29527 -0.81953,0.93775 -0.56272,1.16219 0.15175,0.13262 0.90164,-0.20715 1.0274,-0.46099 1.46389,-0.55994 0.90164,-0.20716 1.41527,0.24172 0.66927,0.58489 0.47149,1.51011 -0.16241,0.7434 -0.80171,1.47492 -0.45227,0.51752 -0.98587,0.80612 -0.72798,0.39323 -1.15211,0.0226 -0.38911,-0.34005 0.0156,-0.80309 0.15642,-0.17899 0.56511,-0.4189 0.40869,-0.23991 0.56852,-0.42279 0.69031,-0.7899 0.37464,-1.07263 -0.19845,-0.17343 -0.91918,0.16438 -1.0546,0.49212 -1.40747,0.58178 -0.8647,0.21199 -1.41723,-0.27089 -0.78212,-0.68351 -0.33018,-1.75035 0.26554,-0.62581 1.13267,-1.61804 0.34006,-0.38911 0.60445,-0.48747 0.36063,-0.13779 0.72639,0.18186 0.7004,0.6121 0.37055,0.98953 z"
         style="font-style:normal;font-variant:normal;font-weight:bold;font-stretch:normal;font-size:10.5833px;font-family:'Comic Sans MS';-inkscape-font-specification:'Comic Sans MS, Bold';font-variant-ligatures:normal;font-variant-caps:normal;font-variant-numeric:normal;font-variant-east-asian:normal;stroke-width:0.264583"
         id="path1247" />
      <path
         d="m 154.42688,133.46218 q -0.29599,0.41728 -0.70562,0.25343 -0.1491,0.14767 -0.27467,0.32469 -0.72054,1.0158 -0.44235,1.21313 0.16438,0.1166 0.87608,-0.29724 0.97554,-0.56249 1.39978,-0.70506 0.87609,-0.29723 1.43246,0.0974 0.72497,0.51424 0.62173,1.45471 -0.0864,0.756 -0.6485,1.54841 -0.39764,0.56059 -0.89932,0.90165 -0.68451,0.46481 -1.14393,0.13892 -0.4215,-0.29897 -0.0657,-0.80055 0.13753,-0.19389 0.51987,-0.47388 0.38234,-0.28 0.52286,-0.4781 0.60693,-0.85563 0.26429,-1.105 -0.21496,-0.15248 -0.89784,0.25646 -0.99946,0.5962 -1.34146,0.72108 -0.83884,0.29831 -1.43736,-0.12623 -0.8472,-0.60095 -0.50542,-1.70801 0.20091,-0.64945 0.9633,-1.72426 0.29898,-0.42149 0.55208,-0.54607 0.34485,-0.17354 0.74105,0.10749 0.75869,0.53816 0.46868,0.94701 z"
         style="font-style:normal;font-variant:normal;font-weight:bold;font-stretch:normal;font-size:10.5833px;font-family:'Comic Sans MS';-inkscape-font-specification:'Comic Sans MS, Bold';font-variant-ligatures:normal;font-variant-caps:normal;font-variant-numeric:normal;font-variant-east-asian:normal;stroke-width:0.264583"
         id="path1249" />
      <path
         d="m 153.585,130.17542 q -0.16931,0.28411 -0.48453,0.379 -0.31521,0.0949 -0.59044,-0.0691 -0.27523,-0.16402 -0.34178,-0.48641 -0.0666,-0.32239 0.10275,-0.6065 0.1693,-0.28411 0.48187,-0.37456 0.31522,-0.0949 0.59045,0.0691 0.27523,0.16401 0.34178,0.48641 0.0692,0.31795 -0.1001,0.60206 z m 3.47878,1.56172 q 0.25303,0.15079 0.8203,0.47079 0.56992,0.31556 0.82296,0.46634 0.25747,0.15343 0.32299,0.42709 0.0611,0.271 -0.0976,0.53736 -0.15872,0.26635 -0.42614,0.3416 -0.27186,0.0726 -0.52933,-0.0808 -0.25304,-0.15079 -0.82296,-0.46635 -0.56727,-0.32 -0.82031,-0.47078 -0.39508,-0.23544 -0.96348,-0.63431 -0.5684,-0.39887 -0.96349,-0.63431 -0.25747,-0.15343 -0.31855,-0.42444 -0.0655,-0.27365 0.0932,-0.54 0.15873,-0.26635 0.43058,-0.33896 0.26742,-0.0753 0.5249,0.0782 0.39508,0.23544 0.96348,0.63431 0.5684,0.39887 0.96349,0.63431 z"
         style="font-style:normal;font-variant:normal;font-weight:bold;font-stretch:normal;font-size:10.5833px;font-family:'Comic Sans MS';-inkscape-font-specification:'Comic Sans MS, Bold';font-variant-ligatures:normal;font-variant-caps:normal;font-variant-numeric:normal;font-variant-east-asian:normal;stroke-width:0.264583"
         id="path1251" />
      <path
         d="m 161.05397,130.04209 q -0.4192,0.8592 -1.3104,1.18913 -0.97639,0.36311 -2.06974,-0.13008 -1.04226,-0.46826 -1.55569,-1.45474 -0.60303,-1.16819 0.011,-2.42681 0.45319,-0.92886 1.46366,-1.11435 0.90898,-0.166 1.89822,0.31664 1.07749,0.52569 1.55819,1.47321 0.53495,1.06022 0.005,2.147 z m -3.72814,-2.16391 q -0.28335,0.56898 0.0806,1.15478 0.30525,0.49393 0.89509,0.7817 0.55732,0.27191 1.00864,0.10112 0.35922,-0.13524 0.52237,-0.46963 0.19713,-0.40406 0.0681,-0.83498 -0.15505,-0.49539 -0.69175,-0.78599 -1.46602,-0.79001 -1.88307,0.053 z"
         style="font-style:normal;font-variant:normal;font-weight:bold;font-stretch:normal;font-size:10.5833px;font-family:'Comic Sans MS';-inkscape-font-specification:'Comic Sans MS, Bold';font-variant-ligatures:normal;font-variant-caps:normal;font-variant-numeric:normal;font-variant-east-asian:normal;stroke-width:0.264583"
         id="path1253" />
      <path
         d="m 163.95863,123.08452 q -0.21505,0.59813 -0.82794,0.45466 -0.52535,-0.112 -1.05557,-0.22575 -0.56114,-0.11938 -1.03284,-0.28897 -0.12643,-0.0455 -0.42755,-0.17019 -0.29937,-0.1296 -0.4258,-0.17506 -0.034,-0.0122 -0.16671,-0.0709 -0.13752,-0.0604 -0.22506,-0.0919 -0.40361,-0.14511 -0.47879,0.064 -0.16085,0.44738 0.20873,1.069 0.36647,0.61501 1.08143,1.14664 0.15698,0.0674 0.4122,0.19762 0.20834,0.10785 0.41744,0.18303 0.13616,0.049 0.42383,0.11944 0.28456,0.0639 0.42072,0.11282 0.27719,0.0997 0.38718,0.35886 0.1166,0.25609 0.0117,0.54787 -0.1049,0.29177 -0.35788,0.41498 -0.24811,0.12497 -0.52529,0.0253 -0.13616,-0.049 -0.41898,-0.11769 -0.28767,-0.0705 -0.42383,-0.11943 -0.46684,-0.16784 -1.27391,-0.5349 -0.80708,-0.36705 -1.27391,-0.53489 -0.14589,-0.0524 -0.43979,-0.13616 -0.29702,-0.0903 -0.43804,-0.14101 -0.27232,-0.0979 -0.37745,-0.35537 -0.10825,-0.26406 -0.005,-0.55097 0.22903,-0.63704 1.00824,-0.40631 l 0.0552,0.0144 q -0.45958,-0.96699 -0.17634,-1.75478 0.33044,-0.91908 1.22466,-0.99297 0.59938,-0.0481 1.62545,0.32082 l 0.34526,0.12413 q 0.22195,0.0853 0.31434,0.11851 0.37931,0.13637 1.01416,0.2493 0.63659,0.10807 1.01104,0.24269 0.27232,0.0979 0.38231,0.35712 0.10999,0.2592 0.007,0.54611 z"
         style="font-style:normal;font-variant:normal;font-weight:bold;font-stretch:normal;font-size:10.5833px;font-family:'Comic Sans MS';-inkscape-font-specification:'Comic Sans MS, Bold';font-variant-ligatures:normal;font-variant-caps:normal;font-variant-numeric:normal;font-variant-east-asian:normal;stroke-width:0.264583"
         id="path1255" />
    </g>
    <g
       aria-label="Here we go!"
       id="text1123"
       style="font-style:normal;font-weight:normal;font-size:10.5833px;line-height:1.25;font-family:sans-serif;fill:#000000;fill-opacity:1;stroke:none;stroke-width:0.264583">
      <path
         d="m 91.105144,62.797376 -1.567148,-2.699301 -2.743992,1.593095 1.567149,2.699301 -1.318368,0.765411 -3.655814,-6.296879 1.318367,-0.765412 1.45558,2.507132 2.743991,-1.593094 -1.455579,-2.507132 1.318367,-0.765412 3.655814,6.296879 z"
         style="font-style:normal;font-variant:normal;font-weight:bold;font-stretch:normal;font-size:10.5833px;font-family:'Liberation Sans';-inkscape-font-specification:'Liberation Sans, Bold';font-variant-ligatures:normal;font-variant-caps:normal;font-variant-numeric:normal;font-variant-east-asian:normal;stroke-width:0.264583"
         id="path1261" />
      <path
         d="m 95.911547,60.656503 q -1.164829,0.482747 -2.075109,0.05449 -0.912257,-0.433035 -1.460294,-1.755402 -0.53023,-1.279402 -0.180202,-2.229979 0.350027,-0.950577 1.514856,-1.433323 1.112317,-0.460984 2.006168,0.03562 0.891873,0.491827 1.481457,1.914446 l 0.01583,0.03819 -3.313079,1.373059 q 0.312598,0.754274 0.74974,1.026208 0.439937,0.265181 0.955517,0.05151 0.711309,-0.294792 0.642268,-0.987785 l 1.310586,-0.414495 q 0.03267,1.631048 -1.647736,2.327469 z m -1.869655,-4.511325 q -0.472615,0.195868 -0.59389,0.632104 -0.116502,0.434258 0.114507,1.032155 l 2.005033,-0.830957 q -0.297371,-0.609552 -0.688535,-0.811039 -0.393143,-0.206261 -0.837115,-0.02226 z"
         style="font-style:normal;font-variant:normal;font-weight:bold;font-stretch:normal;font-size:10.5833px;font-family:'Liberation Sans';-inkscape-font-specification:'Liberation Sans, Bold';font-variant-ligatures:normal;font-variant-caps:normal;font-variant-numeric:normal;font-variant-east-asian:normal;stroke-width:0.264583"
         id="path1263" />
      <path
         d="M 99.237816,59.292738 97.99916,55.197153 q -0.13314,-0.440226 -0.236241,-0.727573 -0.09965,-0.29379 -0.183304,-0.516835 l 1.325624,-0.400917 q 0.04177,0.08455 0.204127,0.532131 0.160864,0.442639 0.205743,0.59103 l 0.01978,-0.006 q 0.03226,-0.625219 0.121731,-0.900622 0.08797,-0.28035 0.272702,-0.454992 0.183232,-0.179589 0.509693,-0.278322 0.2671,-0.08078 0.45277,-0.05595 l 0.35155,1.162394 q -0.35879,0.02753 -0.616,0.10532 -0.519367,0.157076 -0.684046,0.665778 -0.159732,0.507206 0.09009,1.333248 l 0.794352,2.626517 z"
         style="font-style:normal;font-variant:normal;font-weight:bold;font-stretch:normal;font-size:10.5833px;font-family:'Liberation Sans';-inkscape-font-specification:'Liberation Sans, Bold';font-variant-ligatures:normal;font-variant-caps:normal;font-variant-numeric:normal;font-variant-east-asian:normal;stroke-width:0.264583"
         id="path1265" />
      <path
         d="m 105.45728,57.787165 q -1.23713,0.243685 -2.04514,-0.355594 -0.80901,-0.604348 -1.08565,-2.008794 -0.26766,-1.358814 0.26286,-2.221752 0.53053,-0.862937 1.76766,-1.106622 1.18135,-0.232699 1.95979,0.430341 0.77743,0.65797 1.07505,2.168891 l 0.008,0.04056 -3.51872,0.693104 q 0.15779,0.801092 0.53276,1.153853 0.37904,0.346692 0.92662,0.238832 0.75546,-0.148808 0.82437,-0.841813 l 1.36657,-0.148043 q -0.28945,1.60549 -2.07416,1.957036 z m -0.94378,-4.791341 q -0.50195,0.09887 -0.70683,0.502646 -0.19981,0.402776 -0.0912,1.034477 l 2.12948,-0.419458 q -0.17139,-0.656206 -0.51517,-0.930841 -0.34477,-0.279704 -0.8163,-0.186824 z"
         style="font-style:normal;font-variant:normal;font-weight:bold;font-stretch:normal;font-size:10.5833px;font-family:'Liberation Sans';-inkscape-font-specification:'Liberation Sans, Bold';font-variant-ligatures:normal;font-variant-caps:normal;font-variant-numeric:normal;font-variant-east-asian:normal;stroke-width:0.264583"
         id="path1267" />
      <path
         d="m 117.9602,56.755894 -1.53478,-0.0043 -0.87935,-3.413089 q -0.0614,-0.232715 -0.2397,-1.147883 l -0.27193,1.156797 -0.9086,3.397788 -1.53478,-0.0043 -1.4314,-5.59537 1.36424,0.0038 0.90797,4.276166 0.0734,-0.382202 0.13087,-0.604251 0.88762,-3.284158 1.55545,0.0043 0.84869,3.28898 q 0.0716,0.268917 0.20913,0.987602 l 0.14659,-0.681723 0.81612,-3.589247 1.34358,0.0037 z"
         style="font-style:normal;font-variant:normal;font-weight:bold;font-stretch:normal;font-size:10.5833px;font-family:'Liberation Sans';-inkscape-font-specification:'Liberation Sans, Bold';font-variant-ligatures:normal;font-variant-caps:normal;font-variant-numeric:normal;font-variant-east-asian:normal;stroke-width:0.264583"
         id="path1269" />
      <path
         d="m 122.39608,57.370591 q -1.24836,-0.177444 -1.81386,-1.009444 -0.56477,-0.837117 -0.36333,-2.254304 0.1949,-1.371142 0.98008,-2.011153 0.78517,-0.640011 2.03353,-0.462566 1.19207,0.169445 1.70864,1.051905 0.5173,0.877344 0.30059,2.401972 l -0.006,0.04093 -3.55064,-0.504698 q -0.11491,0.80836 0.12293,1.264951 0.24367,0.452203 0.79622,0.530744 0.76232,0.108357 1.05566,-0.523271 l 1.33907,0.310389 q -0.80217,1.420531 -2.60307,1.164546 z m 0.68723,-4.834809 q -0.5065,-0.072 -0.83296,0.241752 -0.32133,0.314474 -0.42686,0.946701 l 2.1488,0.305437 q 0.0543,-0.67604 -0.17978,-1.04859 -0.23339,-0.377667 -0.7092,-0.4453 z"
         style="font-style:normal;font-variant:normal;font-weight:bold;font-stretch:normal;font-size:10.5833px;font-family:'Liberation Sans';-inkscape-font-specification:'Liberation Sans, Bold';font-variant-ligatures:normal;font-variant-caps:normal;font-variant-numeric:normal;font-variant-east-asian:normal;stroke-width:0.264583"
         id="path1271" />
      <path
         d="m 130.33961,61.416601 q -0.97133,-0.321588 -1.44149,-0.890951 -0.46688,-0.562833 -0.37685,-1.295116 l 1.43211,0.294506 q -0.032,0.343236 0.1483,0.604334 0.18519,0.262722 0.57765,0.392657 0.57398,0.190029 0.95583,-0.07548 0.38185,-0.265508 0.61248,-0.962125 l 0.0926,-0.279628 0.1836,-0.521667 -0.01,-0.0032 q -0.77945,0.825195 -2.03041,0.411029 -0.92719,-0.306971 -1.20675,-1.172503 -0.27957,-0.865531 0.14922,-2.16065 0.4304,-1.300024 1.1892,-1.832664 0.7588,-0.532641 1.75957,-0.201308 1.15776,0.383307 1.28747,1.487729 l 0.0245,0.0081 q 0.0568,-0.171701 0.17392,-0.459549 0.12198,-0.286225 0.17736,-0.371313 l 1.30493,0.432033 q -0.20484,0.520076 -0.43548,1.216692 l -1.29772,3.919696 q -0.37518,1.133228 -1.20949,1.499339 -0.83431,0.366111 -2.06075,-0.03993 z m 2.7608,-4.475011 q 0.27124,-0.81926 0.12794,-1.372946 -0.13677,-0.556967 -0.6764,-0.735628 -1.10379,-0.365441 -1.6885,1.40063 -0.57334,1.73173 0.52065,2.093923 0.54944,0.181908 0.98993,-0.1785 0.44702,-0.363689 0.72638,-1.207479 z"
         style="font-style:normal;font-variant:normal;font-weight:bold;font-stretch:normal;font-size:10.5833px;font-family:'Liberation Sans';-inkscape-font-specification:'Liberation Sans, Bold';font-variant-ligatures:normal;font-variant-caps:normal;font-variant-numeric:normal;font-variant-east-asian:normal;stroke-width:0.264583"
         id="path1273" />
      <path
         d="m 140.93353,60.443053 q -0.58727,1.225654 -1.60262,1.598684 -1.01311,0.368369 -2.21547,-0.207735 -1.17905,-0.56494 -1.51518,-1.585529 -0.33614,-1.020589 0.2489,-2.241584 0.5828,-1.216333 1.58659,-1.589169 1.00603,-0.377496 2.21304,0.200842 1.23498,0.591735 1.55898,1.577858 0.33089,0.983696 -0.27424,2.246633 z m -1.37013,-0.656492 q 0.43096,-0.899434 0.33163,-1.445556 -0.0993,-0.546121 -0.65856,-0.814077 -1.19303,-0.571638 -2.01253,1.138686 -0.40417,0.843511 -0.32736,1.424682 0.0837,0.578743 0.63361,0.842233 1.20702,0.578337 2.03321,-1.145968 z"
         style="font-style:normal;font-variant:normal;font-weight:bold;font-stretch:normal;font-size:10.5833px;font-family:'Liberation Sans';-inkscape-font-specification:'Liberation Sans, Bold';font-variant-ligatures:normal;font-variant-caps:normal;font-variant-numeric:normal;font-variant-east-asian:normal;stroke-width:0.264583"
         id="path1275" />
      <path
         d="m 143.21751,62.550996 -1.01607,-0.616655 2.49417,-4.428388 1.2988,0.788246 z m -2.29959,1.179486 0.7239,-1.192777 1.2723,0.77216 -0.7239,1.192777 z"
         style="font-style:normal;font-variant:normal;font-weight:bold;font-stretch:normal;font-size:10.5833px;font-family:'Liberation Sans';-inkscape-font-specification:'Liberation Sans, Bold';font-variant-ligatures:normal;font-variant-caps:normal;font-variant-numeric:normal;font-variant-east-asian:normal;stroke-width:0.264583"
         id="path1277" />
    </g>
    <g
       id="g1288"
       transform="translate(0,-6.1690194)">
      <rect
         style="fill:#d35f5f;fill-opacity:1;stroke-width:0.264999;stroke-miterlimit:4;stroke-dasharray:none"
         id="rect1280"
         width="42.763123"
         height="36.081387"
         x="93.8116"
         y="87.12986" />
      <rect
         style="fill:#ff7f2a;fill-opacity:1;stroke-width:0.264999;stroke-miterlimit:4;stroke-dasharray:none"
         id="rect1284"
         width="25.024345"
         height="21.114292"
         x="102.68098"
         y="94.613411" />
    </g>
  </g>
</svg>
