<?xml version="1.0" encoding="UTF-8" standalone="no"?>
<svg
   xmlns:dc="http://purl.org/dc/elements/1.1/"
   xmlns:cc="http://creativecommons.org/ns#"
   xmlns:rdf="http://www.w3.org/1999/02/22-rdf-syntax-ns#"
   xmlns:svg="http://www.w3.org/2000/svg"
   xmlns="http://www.w3.org/2000/svg"
   xmlns:xlink="http://www.w3.org/1999/xlink"
   xmlns:sodipodi="http://sodipodi.sourceforge.net/DTD/sodipodi-0.dtd"
   xmlns:inkscape="http://www.inkscape.org/namespaces/inkscape"
   width="210mm"
   height="297mm"
   viewBox="0 0 210 297"
   version="1.1"
   id="svg964"
   inkscape:version="1.0.1 (3bc2e813f5, 2020-09-07)"
   sodipodi:docname="Task3.svg"
   inkscape:export-filename="C:\Users\Vladislav\Desktop\Компьютерная графика новая\Выполненные задания\Лабораторная работа 4\Task3.png"
   inkscape:export-xdpi="191.39783"
   inkscape:export-ydpi="191.39783">
  <defs
     id="defs958" />
  <sodipodi:namedview
     id="base"
     pagecolor="#ffffff"
     bordercolor="#666666"
     borderopacity="1.0"
     inkscape:pageopacity="0.0"
     inkscape:pageshadow="2"
     inkscape:zoom="1.4"
     inkscape:cx="304.58737"
     inkscape:cy="362.6197"
     inkscape:document-units="mm"
     inkscape:current-layer="layer1"
     inkscape:document-rotation="0"
     showgrid="false"
     inkscape:snap-page="true"
     inkscape:snap-smooth-nodes="true"
     inkscape:snap-intersection-paths="true"
     inkscape:object-paths="true"
     inkscape:snap-bbox="true"
     inkscape:bbox-paths="false"
     inkscape:bbox-nodes="false"
     inkscape:snap-bbox-edge-midpoints="false"
     inkscape:snap-bbox-midpoints="false"
     showguides="true"
     inkscape:snap-midpoints="true"
     inkscape:guide-bbox="true"
     inkscape:snap-global="true">
    <inkscape:grid
       type="xygrid"
       id="grid973" />
  </sodipodi:namedview>
  <metadata
     id="metadata961">
    <rdf:RDF>
      <cc:Work
         rdf:about="">
        <dc:format>image/svg+xml</dc:format>
        <dc:type
           rdf:resource="http://purl.org/dc/dcmitype/StillImage" />
        <dc:title></dc:title>
      </cc:Work>
    </rdf:RDF>
  </metadata>
  <g
     inkscape:label="Layer 1"
     inkscape:groupmode="layer"
     id="layer1">
    <path
       id="path1075"
       style="fill:#d40000;stroke-width:1.00157;stroke-miterlimit:4;stroke-dasharray:none"
       d="M 294.7793 316.61328 A 177.18091 48.426462 0 0 0 146.85352 338.38477 L 146.85352 391.69336 A 177.18091 48.426462 0 0 0 294.7793 413.4668 A 177.18091 48.426462 0 0 0 448.23242 389.24805 L 448.23242 340.83203 A 177.18091 48.426462 0 0 0 294.7793 316.61328 z "
       transform="scale(0.26458333)" />
    <rect
       style="fill:#5599ff;fill-opacity:1;stroke-width:0.264999;stroke-miterlimit:4;stroke-dasharray:none"
       id="rect1092"
       width="2.0647597"
       height="22.558748"
       x="38.854992"
       y="85.303879" />
    <rect
       style="fill:#5599ff;fill-opacity:1;stroke-width:0.264999;stroke-miterlimit:4;stroke-dasharray:none"
       id="rect1090"
       width="2.0647597"
       height="22.558748"
       x="116.53007"
       y="84.477676" />
    <g
       id="g986">
      <path
         id="use981"
         style="fill:#ccff00;stroke-width:0.264999;stroke-miterlimit:4;stroke-dasharray:none"
         d="m 78.661865,43.297615 c -22.048424,0.02975 -39.90779,19.645549 -39.907641,43.832467 2e-5,0.891524 0.02483,1.78284 0.07441,2.672704 27.81678,-17.445616 54.845366,-21.166437 79.764646,0 0.0496,-0.889864 0.0744,-1.78118 0.0744,-2.672704 1.3e-4,-24.207936 -17.88914,-43.832432 -39.956738,-43.832467 h -0.04909 z"
         sodipodi:nodetypes="cscccscc" />
    </g>
    <path
       id="path966"
       style="fill:#ccff00;stroke-width:1.00157;stroke-miterlimit:4;stroke-dasharray:none"
       d="m 297.30469,163.64453 c -83.33263,0.11246 -150.8326,74.25089 -150.83203,165.66602 8e-5,3.36954 0.0939,6.73829 0.28125,10.10156 95.57065,-19.68093 191.03891,-39.77142 301.47265,0 0.18738,-3.36327 0.28117,-6.73202 0.28125,-10.10156 5e-4,-91.49456 -67.61248,-165.66588 -151.01758,-165.66602 z"
       transform="scale(0.26458333)"
       sodipodi:nodetypes="cscccsc" />
    <use
       x="0"
       y="0"
       xlink:href="#path966"
       id="use975" />
    <use
       x="0"
       y="0"
       xlink:href="#use975"
       id="use977" />
    <g
       id="g1045"
       style="fill:#f9f9f9">
      <path
         id="path1002"
         style="fill:#f9f9f9;stroke-width:1.00157;stroke-miterlimit:4;stroke-dasharray:none"
         inkscape:transform-center-x="0.27410828"
         inkscape:transform-center-y="2.1980693"
         d="M 176.7168 319.33594 L 160.62891 322.06445 L 146.60742 324.44141 L 146.60742 330.74414 L 154.13867 352.44141 L 163.73633 380.09375 L 170.22656 349.71484 L 176.7168 319.33594 z "
         transform="scale(0.26458333)" />
      <path
         sodipodi:type="star"
         style="fill:#f9f9f9;stroke-width:0.468416;stroke-miterlimit:4;stroke-dasharray:none"
         id="path1004"
         sodipodi:sides="3"
         sodipodi:cx="133.42558"
         sodipodi:cy="52.160713"
         sodipodi:r1="12.594324"
         sodipodi:r2="6.2971616"
         sodipodi:arg1="-0.4502256"
         sodipodi:arg2="0.59697195"
         inkscape:flatsided="false"
         inkscape:rounded="0"
         inkscape:randomized="0"
         d="m 144.76487,46.680058 -6.13127,9.020546 -6.13127,9.020547 -4.74639,-9.82011 -4.74639,-9.82011 10.87766,0.799564 z"
         inkscape:transform-center-x="0.27410828"
         inkscape:transform-center-y="2.1980693"
         transform="matrix(0.38601732,-0.12557532,0.0720203,0.80569361,-4.9280691,63.926011)" />
      <path
         sodipodi:type="star"
         style="fill:#f9f9f9;stroke-width:0.468416;stroke-miterlimit:4;stroke-dasharray:none"
         id="path1006"
         sodipodi:sides="3"
         sodipodi:cx="133.42558"
         sodipodi:cy="52.160713"
         sodipodi:r1="12.594324"
         sodipodi:r2="6.2971616"
         sodipodi:arg1="-0.4502256"
         sodipodi:arg2="0.59697195"
         inkscape:flatsided="false"
         inkscape:rounded="0"
         inkscape:randomized="0"
         d="m 144.76487,46.680058 -6.13127,9.020546 -6.13127,9.020547 -4.74639,-9.82011 -4.74639,-9.82011 10.87766,0.799564 z"
         inkscape:transform-center-x="-0.19884234"
         inkscape:transform-center-y="2.3975335"
         transform="matrix(0.39594959,-0.08945646,-0.00255748,0.80890208,5.1962668,57.805544)" />
      <path
         sodipodi:type="star"
         style="fill:#f9f9f9;stroke-width:0.468416;stroke-miterlimit:4;stroke-dasharray:none"
         id="path1008"
         sodipodi:sides="3"
         sodipodi:cx="133.42558"
         sodipodi:cy="52.160713"
         sodipodi:r1="12.594324"
         sodipodi:r2="6.2971616"
         sodipodi:arg1="-0.4502256"
         sodipodi:arg2="0.59697195"
         inkscape:flatsided="false"
         inkscape:rounded="0"
         inkscape:randomized="0"
         d="m 144.76487,46.680058 -6.13127,9.020546 -6.13127,9.020547 -4.74639,-9.82011 -4.74639,-9.82011 10.87766,0.799564 z"
         inkscape:transform-center-x="-0.21924332"
         inkscape:transform-center-y="2.4056933"
         transform="matrix(0.39630282,-0.08787838,-0.00577993,0.80888547,13.065734,56.461925)" />
      <path
         sodipodi:type="star"
         style="fill:#f9f9f9;stroke-width:0.443722;stroke-miterlimit:4;stroke-dasharray:none"
         id="path1010"
         sodipodi:sides="3"
         sodipodi:cx="133.42558"
         sodipodi:cy="52.160713"
         sodipodi:r1="12.594324"
         sodipodi:r2="6.2971616"
         sodipodi:arg1="-0.4502256"
         sodipodi:arg2="0.59697195"
         inkscape:flatsided="false"
         inkscape:rounded="0"
         inkscape:randomized="0"
         d="m 144.76487,46.680058 -6.13127,9.020546 -6.13127,9.020547 -4.74639,-9.82011 -4.74639,-9.82011 10.87766,0.799564 z"
         inkscape:transform-center-x="-0.23256738"
         inkscape:transform-center-y="2.4875443"
         transform="matrix(0.43113426,-0.08538566,-0.00534142,0.82834027,15.790331,54.873887)" />
      <path
         sodipodi:type="star"
         style="fill:#f9f9f9;stroke-width:0.468416;stroke-miterlimit:4;stroke-dasharray:none"
         id="path1012"
         sodipodi:sides="3"
         sodipodi:cx="133.42558"
         sodipodi:cy="52.160713"
         sodipodi:r1="12.594324"
         sodipodi:r2="6.2971616"
         sodipodi:arg1="-0.4502256"
         sodipodi:arg2="0.59697195"
         inkscape:flatsided="false"
         inkscape:rounded="0"
         inkscape:randomized="0"
         d="m 144.76487,46.680058 -6.13127,9.020546 -6.13127,9.020547 -4.74639,-9.82011 -4.74639,-9.82011 10.87766,0.799564 z"
         inkscape:transform-center-x="-0.2455385"
         inkscape:transform-center-y="2.4161581"
         transform="matrix(0.39674892,-0.08584188,-0.00993414,0.80884512,28.719923,55.24737)" />
      <path
         sodipodi:type="star"
         style="fill:#f9f9f9;stroke-width:0.468416;stroke-miterlimit:4;stroke-dasharray:none"
         id="path1014"
         sodipodi:sides="3"
         sodipodi:cx="133.42558"
         sodipodi:cy="52.160713"
         sodipodi:r1="12.594324"
         sodipodi:r2="6.2971616"
         sodipodi:arg1="-0.4502256"
         sodipodi:arg2="0.59697195"
         inkscape:flatsided="false"
         inkscape:rounded="0"
         inkscape:randomized="0"
         d="m 144.76487,46.680058 -6.13127,9.020546 -6.13127,9.020547 -4.74639,-9.82011 -4.74639,-9.82011 10.87766,0.799564 z"
         inkscape:transform-center-x="-0.77429099"
         inkscape:transform-center-y="2.4529323"
         transform="matrix(0.40350471,-0.04429992,-0.09363098,0.80346895,38.987785,50.174022)" />
      <path
         sodipodi:type="star"
         style="fill:#f9f9f9;stroke-width:0.468416;stroke-miterlimit:4;stroke-dasharray:none"
         id="path1016"
         sodipodi:sides="3"
         sodipodi:cx="133.42558"
         sodipodi:cy="52.160713"
         sodipodi:r1="12.594324"
         sodipodi:r2="6.2971616"
         sodipodi:arg1="-0.4502256"
         sodipodi:arg2="0.59697195"
         inkscape:flatsided="false"
         inkscape:rounded="0"
         inkscape:randomized="0"
         d="m 144.76487,46.680058 -6.13127,9.020546 -6.13127,9.020547 -4.74639,-9.82011 -4.74639,-9.82011 10.87766,0.799564 z"
         inkscape:transform-center-x="-0.43433866"
         inkscape:transform-center-y="2.4894842"
         transform="matrix(0.39964718,-0.07113832,-0.03978401,0.80792719,42.552413,54.656335)" />
      <path
         sodipodi:type="star"
         style="fill:#f9f9f9;stroke-width:0.468416;stroke-miterlimit:4;stroke-dasharray:none"
         id="path1018"
         sodipodi:sides="3"
         sodipodi:cx="133.42558"
         sodipodi:cy="52.160713"
         sodipodi:r1="12.594324"
         sodipodi:r2="6.2971616"
         sodipodi:arg1="-0.4502256"
         sodipodi:arg2="0.59697195"
         inkscape:flatsided="false"
         inkscape:rounded="0"
         inkscape:randomized="0"
         d="m 144.76487,46.680058 -6.13127,9.020546 -6.13127,9.020547 -4.74639,-9.82011 -4.74639,-9.82011 10.87766,0.799564 z"
         inkscape:transform-center-x="-0.62707832"
         inkscape:transform-center-y="2.5256673"
         transform="matrix(0.40205073,-0.05597985,-0.07029715,0.80584578,51.004854,53.498328)" />
      <path
         sodipodi:type="star"
         style="fill:#f9f9f9;stroke-width:0.468416;stroke-miterlimit:4;stroke-dasharray:none"
         id="path1020"
         sodipodi:sides="3"
         sodipodi:cx="133.42558"
         sodipodi:cy="52.160713"
         sodipodi:r1="12.594324"
         sodipodi:r2="6.2971616"
         sodipodi:arg1="-0.4502256"
         sodipodi:arg2="0.59697195"
         inkscape:flatsided="false"
         inkscape:rounded="0"
         inkscape:randomized="0"
         d="m 144.76487,46.680058 -6.13127,9.020546 -6.13127,9.020547 -4.74639,-9.82011 -4.74639,-9.82011 10.87766,0.799564 z"
         inkscape:transform-center-x="-1.2003326"
         inkscape:transform-center-y="2.2287803"
         transform="matrix(0.40580631,-0.00998833,-0.16130057,0.79266086,62.243125,48.805569)" />
      <path
         id="path1022"
         style="fill:#f9f9f9;stroke-width:1.00157;stroke-miterlimit:4;stroke-dasharray:none"
         inkscape:transform-center-x="-1.1737597"
         inkscape:transform-center-y="1.6703951"
         d="M 424.2207 319.88477 L 423.63672 349.14844 L 423.05273 378.41211 L 439.67188 352.16797 L 447.85742 339.24219 L 447.85742 324.33594 L 440.25586 322.9043 L 424.2207 319.88477 z "
         transform="scale(0.26458333)" />
    </g>
    <use
       x="0"
       y="0"
       xlink:href="#use977"
       id="use979"
       style="fill:#5599ff" />
    <g
       id="g1069"
       transform="matrix(1,0,0,-1,0.17106203,193.69973)"
       style="fill:#f9f9f9">
      <path
         id="path1047"
         style="fill:#f9f9f9;stroke-width:1.00157;stroke-miterlimit:4;stroke-dasharray:none"
         inkscape:transform-center-x="0.27410828"
         inkscape:transform-center-y="2.1980693"
         d="m 176.7168,319.33594 -16.08789,2.72851 -14.02149,2.37696 v 6.30273 l 7.53125,21.69727 9.59766,27.65234 6.49023,-30.37891 z"
         transform="scale(0.26458333)" />
      <path
         sodipodi:type="star"
         style="fill:#f9f9f9;stroke-width:0.468416;stroke-miterlimit:4;stroke-dasharray:none"
         id="path1049"
         sodipodi:sides="3"
         sodipodi:cx="133.42558"
         sodipodi:cy="52.160713"
         sodipodi:r1="12.594324"
         sodipodi:r2="6.2971616"
         sodipodi:arg1="-0.4502256"
         sodipodi:arg2="0.59697195"
         inkscape:flatsided="false"
         inkscape:rounded="0"
         inkscape:randomized="0"
         d="m 144.76487,46.680058 -6.13127,9.020546 -6.13127,9.020547 -4.74639,-9.82011 -4.74639,-9.82011 10.87766,0.799564 z"
         inkscape:transform-center-x="0.27410828"
         inkscape:transform-center-y="2.1980693"
         transform="matrix(0.38601732,-0.12557532,0.0720203,0.80569361,-4.9280691,63.926011)" />
      <path
         sodipodi:type="star"
         style="fill:#f9f9f9;stroke-width:0.468416;stroke-miterlimit:4;stroke-dasharray:none"
         id="path1051"
         sodipodi:sides="3"
         sodipodi:cx="133.42558"
         sodipodi:cy="52.160713"
         sodipodi:r1="12.594324"
         sodipodi:r2="6.2971616"
         sodipodi:arg1="-0.4502256"
         sodipodi:arg2="0.59697195"
         inkscape:flatsided="false"
         inkscape:rounded="0"
         inkscape:randomized="0"
         d="m 144.76487,46.680058 -6.13127,9.020546 -6.13127,9.020547 -4.74639,-9.82011 -4.74639,-9.82011 10.87766,0.799564 z"
         inkscape:transform-center-x="-0.19884234"
         inkscape:transform-center-y="2.3975335"
         transform="matrix(0.39594959,-0.08945646,-0.00255748,0.80890208,5.1962668,57.805544)" />
      <path
         sodipodi:type="star"
         style="fill:#f9f9f9;stroke-width:0.468416;stroke-miterlimit:4;stroke-dasharray:none"
         id="path1053"
         sodipodi:sides="3"
         sodipodi:cx="133.42558"
         sodipodi:cy="52.160713"
         sodipodi:r1="12.594324"
         sodipodi:r2="6.2971616"
         sodipodi:arg1="-0.4502256"
         sodipodi:arg2="0.59697195"
         inkscape:flatsided="false"
         inkscape:rounded="0"
         inkscape:randomized="0"
         d="m 144.76487,46.680058 -6.13127,9.020546 -6.13127,9.020547 -4.74639,-9.82011 -4.74639,-9.82011 10.87766,0.799564 z"
         inkscape:transform-center-x="-0.21924332"
         inkscape:transform-center-y="2.4056933"
         transform="matrix(0.39630282,-0.08787838,-0.00577993,0.80888547,13.065734,56.461925)" />
      <path
         sodipodi:type="star"
         style="fill:#f9f9f9;stroke-width:0.443722;stroke-miterlimit:4;stroke-dasharray:none"
         id="path1055"
         sodipodi:sides="3"
         sodipodi:cx="133.42558"
         sodipodi:cy="52.160713"
         sodipodi:r1="12.594324"
         sodipodi:r2="6.2971616"
         sodipodi:arg1="-0.4502256"
         sodipodi:arg2="0.59697195"
         inkscape:flatsided="false"
         inkscape:rounded="0"
         inkscape:randomized="0"
         d="m 144.76487,46.680058 -6.13127,9.020546 -6.13127,9.020547 -4.74639,-9.82011 -4.74639,-9.82011 10.87766,0.799564 z"
         inkscape:transform-center-x="-0.23256738"
         inkscape:transform-center-y="2.4875443"
         transform="matrix(0.43113426,-0.08538566,-0.00534142,0.82834027,15.790331,54.873887)" />
      <path
         sodipodi:type="star"
         style="fill:#f9f9f9;stroke-width:0.468416;stroke-miterlimit:4;stroke-dasharray:none"
         id="path1057"
         sodipodi:sides="3"
         sodipodi:cx="133.42558"
         sodipodi:cy="52.160713"
         sodipodi:r1="12.594324"
         sodipodi:r2="6.2971616"
         sodipodi:arg1="-0.4502256"
         sodipodi:arg2="0.59697195"
         inkscape:flatsided="false"
         inkscape:rounded="0"
         inkscape:randomized="0"
         d="m 144.76487,46.680058 -6.13127,9.020546 -6.13127,9.020547 -4.74639,-9.82011 -4.74639,-9.82011 10.87766,0.799564 z"
         inkscape:transform-center-x="-0.2455385"
         inkscape:transform-center-y="2.4161581"
         transform="matrix(0.39674892,-0.08584188,-0.00993414,0.80884512,28.719923,55.24737)" />
      <path
         sodipodi:type="star"
         style="fill:#f9f9f9;stroke-width:0.468416;stroke-miterlimit:4;stroke-dasharray:none"
         id="path1059"
         sodipodi:sides="3"
         sodipodi:cx="133.42558"
         sodipodi:cy="52.160713"
         sodipodi:r1="12.594324"
         sodipodi:r2="6.2971616"
         sodipodi:arg1="-0.4502256"
         sodipodi:arg2="0.59697195"
         inkscape:flatsided="false"
         inkscape:rounded="0"
         inkscape:randomized="0"
         d="m 144.76487,46.680058 -6.13127,9.020546 -6.13127,9.020547 -4.74639,-9.82011 -4.74639,-9.82011 10.87766,0.799564 z"
         inkscape:transform-center-x="-0.77429099"
         inkscape:transform-center-y="2.4529323"
         transform="matrix(0.40350471,-0.04429992,-0.09363098,0.80346895,38.987785,50.174022)" />
      <path
         sodipodi:type="star"
         style="fill:#f9f9f9;stroke-width:0.468416;stroke-miterlimit:4;stroke-dasharray:none"
         id="path1061"
         sodipodi:sides="3"
         sodipodi:cx="133.42558"
         sodipodi:cy="52.160713"
         sodipodi:r1="12.594324"
         sodipodi:r2="6.2971616"
         sodipodi:arg1="-0.4502256"
         sodipodi:arg2="0.59697195"
         inkscape:flatsided="false"
         inkscape:rounded="0"
         inkscape:randomized="0"
         d="m 144.76487,46.680058 -6.13127,9.020546 -6.13127,9.020547 -4.74639,-9.82011 -4.74639,-9.82011 10.87766,0.799564 z"
         inkscape:transform-center-x="-0.43433866"
         inkscape:transform-center-y="2.4894842"
         transform="matrix(0.39964718,-0.07113832,-0.03978401,0.80792719,42.552413,54.656335)" />
      <path
         sodipodi:type="star"
         style="fill:#f9f9f9;stroke-width:0.468416;stroke-miterlimit:4;stroke-dasharray:none"
         id="path1063"
         sodipodi:sides="3"
         sodipodi:cx="133.42558"
         sodipodi:cy="52.160713"
         sodipodi:r1="12.594324"
         sodipodi:r2="6.2971616"
         sodipodi:arg1="-0.4502256"
         sodipodi:arg2="0.59697195"
         inkscape:flatsided="false"
         inkscape:rounded="0"
         inkscape:randomized="0"
         d="m 144.76487,46.680058 -6.13127,9.020546 -6.13127,9.020547 -4.74639,-9.82011 -4.74639,-9.82011 10.87766,0.799564 z"
         inkscape:transform-center-x="-0.62707832"
         inkscape:transform-center-y="2.5256673"
         transform="matrix(0.40205073,-0.05597985,-0.07029715,0.80584578,51.004854,53.498328)" />
      <path
         sodipodi:type="star"
         style="fill:#f9f9f9;stroke-width:0.468416;stroke-miterlimit:4;stroke-dasharray:none"
         id="path1065"
         sodipodi:sides="3"
         sodipodi:cx="133.42558"
         sodipodi:cy="52.160713"
         sodipodi:r1="12.594324"
         sodipodi:r2="6.2971616"
         sodipodi:arg1="-0.4502256"
         sodipodi:arg2="0.59697195"
         inkscape:flatsided="false"
         inkscape:rounded="0"
         inkscape:randomized="0"
         d="m 144.76487,46.680058 -6.13127,9.020546 -6.13127,9.020547 -4.74639,-9.82011 -4.74639,-9.82011 10.87766,0.799564 z"
         inkscape:transform-center-x="-1.2003326"
         inkscape:transform-center-y="2.2287803"
         transform="matrix(0.40580631,-0.00998833,-0.16130057,0.79266086,62.243125,48.805569)" />
      <path
         id="path1067"
         style="fill:#f9f9f9;stroke-width:1.00157;stroke-miterlimit:4;stroke-dasharray:none"
         inkscape:transform-center-x="-1.1737597"
         inkscape:transform-center-y="1.6703951"
         d="m 424.2207,319.88477 -0.58398,29.26367 -0.58399,29.26367 16.61915,-26.24414 8.18554,-12.92578 v -14.90625 l -7.60156,-1.43164 z"
         transform="scale(0.26458333)" />
    </g>
    <use
       x="0"
       y="0"
       xlink:href="#use977"
       id="use994"
       transform="matrix(1,0,0,-0.58549157,-2.1291006e-7,156.92924)"
       width="100%"
       height="100%"
       style="stroke-width:1.30689" />
    <path
       style="fill:#5599ff;stroke-width:1.00157;stroke-miterlimit:4;stroke-dasharray:none"
       d="m 146.6786,336.28457 c -0.35321,-25.68216 2.18903,-43.56063 9.12942,-64.20323 22.37832,-66.55919 80.67641,-110.0343 145.19936,-108.28072 11.55834,0.31413 20.13442,1.48901 30.89286,4.23216 42.27648,10.77954 78.54321,41.44796 98.96093,83.68483 9.10952,18.84431 14.55529,38.31163 16.78616,60.00658 0.60532,5.8866 0.97095,26.6124 0.47821,27.10719 -0.1118,0.11227 -3.56716,-0.92181 -7.67857,-2.29796 -4.11142,-1.37614 -9.40387,-3.06436 -11.76101,-3.75158 -2.35715,-0.68723 -5.89286,-1.72181 -7.85715,-2.29907 -4.22736,-1.24232 -14.96028,-3.91523 -20,-4.98076 -1.96428,-0.4153 -4.61607,-0.98564 -5.89285,-1.26742 -15.67211,-3.4587 -37.64034,-6.22477 -58.44743,-7.35923 -7.54407,-0.41133 -40.6789,-0.28078 -47.44543,0.18693 -19.24196,1.33003 -35.09831,2.95229 -48.92857,5.00586 -1.96429,0.29166 -4.77679,0.7095 -6.25,0.92852 -9.47068,1.40803 -21.64847,3.39332 -26.07143,4.25031 -2.84822,0.55187 -6.38393,1.19934 -7.85714,1.43883 -1.47322,0.23948 -7.09822,1.31791 -12.5,2.3965 -5.40179,1.07859 -11.43704,2.26287 -13.41168,2.63174 -5.76122,1.0762 -23.09618,4.61691 -24.2669,4.95657 -0.58928,0.17097 -1.51339,0.4087 -2.05357,0.5283 l -0.98214,0.21745 z"
       id="path1071"
       transform="scale(0.26458333)" />
    <path
       style="fill:#5599ff;stroke-width:1.00157;stroke-miterlimit:4;stroke-dasharray:none"
       d="m 287.07881,496.91526 c -47.9335,-2.29045 -90.88317,-18.67392 -116.60714,-44.48064 -7.36959,-7.3933 -12.35582,-14.23885 -16.6371,-22.84093 -4.74893,-9.54171 -6.72515,-17.4616 -7.021,-28.13735 l -0.18557,-6.69643 h 0.87486 c 0.48117,0 7.53349,0.79774 15.67183,1.77277 74.13151,8.88139 116.88624,11.89539 160.51127,11.31526 42.04221,-0.55909 77.04659,-4.02213 114.74681,-11.35212 5.16432,-1.00408 9.46903,-1.74626 9.56601,-1.64927 0.40456,0.40456 0.11561,11.42916 -0.3861,14.73105 -1.8545,12.20509 -7.35121,24.20216 -16.11952,35.18231 -3.38181,4.23489 -11.34444,12.1106 -16.02149,15.8466 -4.26227,3.40469 -13.20352,9.45187 -18.00578,12.17776 -19.84903,11.26682 -44.62954,19.16093 -70.65536,22.50804 -11.36978,1.46224 -28.47376,2.1609 -39.73172,1.62295 z"
       id="path1073"
       transform="scale(0.26458333)" />
  </g>
</svg>
