<?xml version="1.0" encoding="UTF-8" standalone="no"?>
<svg
   xmlns:dc="http://purl.org/dc/elements/1.1/"
   xmlns:cc="http://creativecommons.org/ns#"
   xmlns:rdf="http://www.w3.org/1999/02/22-rdf-syntax-ns#"
   xmlns:svg="http://www.w3.org/2000/svg"
   xmlns="http://www.w3.org/2000/svg"
   xmlns:xlink="http://www.w3.org/1999/xlink"
   xmlns:sodipodi="http://sodipodi.sourceforge.net/DTD/sodipodi-0.dtd"
   xmlns:inkscape="http://www.inkscape.org/namespaces/inkscape"
   width="210mm"
   height="297mm"
   viewBox="0 0 210 297"
   version="1.1"
   id="svg962"
   inkscape:version="1.0.1 (3bc2e813f5, 2020-09-07)"
   sodipodi:docname="Task5.svg"
   inkscape:export-filename="C:\Users\Vladislav\Documents\nstu\ComputerGraphics\Laba 5 - INKSCAPE\Task5.png"
   inkscape:export-xdpi="146.125"
   inkscape:export-ydpi="146.125">
  <defs
     id="defs956">
    <linearGradient
       inkscape:collect="always"
       id="linearGradient1295">
      <stop
         style="stop-color:#ffffff;stop-opacity:1;"
         offset="0"
         id="stop1291" />
      <stop
         style="stop-color:#ffffff;stop-opacity:0;"
         offset="1"
         id="stop1293" />
    </linearGradient>
    <linearGradient
       inkscape:collect="always"
       id="linearGradient1285">
      <stop
         style="stop-color:#81dcca;stop-opacity:1;"
         offset="0"
         id="stop1281" />
      <stop
         style="stop-color:#81dcca;stop-opacity:0;"
         offset="1"
         id="stop1283" />
    </linearGradient>
    <linearGradient
       inkscape:collect="always"
       id="linearGradient1237">
      <stop
         style="stop-color:#dd14d7;stop-opacity:1;"
         offset="0"
         id="stop1233" />
      <stop
         style="stop-color:#dd14d7;stop-opacity:0;"
         offset="1"
         id="stop1235" />
    </linearGradient>
    <linearGradient
       inkscape:collect="always"
       id="linearGradient1205">
      <stop
         style="stop-color:#ff3ac2;stop-opacity:1;"
         offset="0"
         id="stop1201" />
      <stop
         style="stop-color:#ff3ac2;stop-opacity:0;"
         offset="1"
         id="stop1203" />
    </linearGradient>
    <linearGradient
       inkscape:collect="always"
       id="linearGradient980">
      <stop
         style="stop-color:#ff47d7;stop-opacity:1;"
         offset="0"
         id="stop976" />
      <stop
         style="stop-color:#ff47d7;stop-opacity:0;"
         offset="1"
         id="stop978" />
    </linearGradient>
    <radialGradient
       inkscape:collect="always"
       xlink:href="#linearGradient980"
       id="radialGradient982"
       cx="102.4049"
       cy="74.192757"
       fx="102.4049"
       fy="74.192757"
       r="55.859337"
       gradientTransform="matrix(1.8850227,0.07443507,-0.06655772,1.6855334,-85.465941,-70.269445)"
       gradientUnits="userSpaceOnUse" />
    <linearGradient
       inkscape:collect="always"
       xlink:href="#linearGradient1205"
       id="linearGradient1207"
       x1="400.63507"
       y1="-184.80582"
       x2="400.63507"
       y2="498.56238"
       gradientUnits="userSpaceOnUse"
       gradientTransform="matrix(0.26458333,0,0,0.26458333,0,1.2396799)" />
    <linearGradient
       inkscape:collect="always"
       xlink:href="#linearGradient1205"
       id="linearGradient1219"
       x1="107.70949"
       y1="73.064758"
       x2="106.37314"
       y2="129.59227"
       gradientUnits="userSpaceOnUse"
       gradientTransform="translate(-9.2237669e-7,1.2394378)" />
    <linearGradient
       inkscape:collect="always"
       xlink:href="#linearGradient1237"
       id="linearGradient1239"
       x1="102.49772"
       y1="54.000111"
       x2="102.49772"
       y2="118.27843"
       gradientUnits="userSpaceOnUse"
       gradientTransform="translate(0,1.2396799)" />
    <linearGradient
       inkscape:collect="always"
       xlink:href="#linearGradient1285"
       id="linearGradient1287"
       x1="482.25653"
       y1="245.61328"
       x2="488.00793"
       y2="318.63272"
       gradientUnits="userSpaceOnUse"
       gradientTransform="matrix(0.26458333,0,0,0.26458333,3.3408691,-6.5481034)" />
    <radialGradient
       inkscape:collect="always"
       xlink:href="#linearGradient1295"
       id="radialGradient1297"
       cx="71.641029"
       cy="56.78648"
       fx="71.641029"
       fy="56.78648"
       r="29.119576"
       gradientTransform="matrix(11.100751,0,0,9.5703538,-617.63078,-428.59226)"
       gradientUnits="userSpaceOnUse" />
  </defs>
  <sodipodi:namedview
     id="base"
     pagecolor="#ffffff"
     bordercolor="#666666"
     borderopacity="1.0"
     inkscape:pageopacity="0.0"
     inkscape:pageshadow="2"
     inkscape:zoom="0.98994949"
     inkscape:cx="372.30322"
     inkscape:cy="253.56781"
     inkscape:document-units="mm"
     inkscape:current-layer="layer1"
     inkscape:document-rotation="0"
     showgrid="false"
     inkscape:snap-bbox="true"
     inkscape:bbox-paths="true"
     inkscape:bbox-nodes="true"
     inkscape:snap-bbox-edge-midpoints="true"
     inkscape:snap-bbox-midpoints="true"
     inkscape:object-paths="true"
     inkscape:snap-intersection-paths="true"
     inkscape:snap-global="true" />
  <metadata
     id="metadata959">
    <rdf:RDF>
      <cc:Work
         rdf:about="">
        <dc:format>image/svg+xml</dc:format>
        <dc:type
           rdf:resource="http://purl.org/dc/dcmitype/StillImage" />
        <dc:title></dc:title>
      </cc:Work>
    </rdf:RDF>
  </metadata>
  <g
     inkscape:label="Layer 1"
     inkscape:groupmode="layer"
     id="layer1">
    <g
       id="g991"
       transform="translate(-9.52771e-5,1.2394485)">
      <g
         id="g986">
        <path
           id="rect964"
           style="fill:#ff0066;stroke-width:0.264999;stroke-linecap:round;stroke-linejoin:bevel"
           d="m 54.541965,35.546848 h 97.782705 c 3.86026,0 6.96798,3.703738 6.96798,8.304344 V 138.6939 c 0,4.6006 -3.10772,8.30434 -6.96798,8.30434 H 54.541965 c -3.860264,0 -6.967987,-3.70374 -6.967987,-8.30434 V 43.851192 c 0,-4.600606 3.107723,-8.304344 6.967987,-8.304344 z" />
        <path
           id="rect966"
           style="fill:url(#radialGradient982);fill-opacity:1;stroke-width:0.264999;stroke-linecap:round;stroke-linejoin:bevel"
           d="m 54.541965,35.546848 h 97.782705 c 3.86026,0 6.96798,3.703738 6.96798,8.304344 V 138.6939 c 0,4.6006 -3.10772,8.30434 -6.96798,8.30434 H 54.541965 c -3.860264,0 -6.967987,-3.70374 -6.967987,-8.30434 V 43.851192 c 0,-4.600606 3.107723,-8.304344 6.967987,-8.304344 z" />
      </g>
    </g>
    <path
       id="path993"
       style="fill:#8080ff;fill-opacity:1;stroke:none;stroke-width:0.264583px;stroke-linecap:butt;stroke-linejoin:miter;stroke-opacity:1"
       d="m 150.93497,103.00246 c -0.18992,-9.9e-4 -0.38809,0.001 -0.5948,0.007 -6.61457,0.18899 -8.45751,7.1814 -9.63868,9.40201 -1.18118,2.22061 -7.37031,5.38661 -10.96109,5.52835 -3.59077,0.14174 -6.75633,-0.42522 -9.26042,-3.63802 -2.50409,-3.2128 -2.07909,-11.10304 -10.5363,-10.91406 -8.45721,0.18899 -7.55931,7.60633 -12.28401,11.33884 -4.724701,3.73252 -8.220911,2.50438 -13.465328,-1.27538 -5.24442,-3.77976 -3.070984,-9.96919 -10.158034,-9.68571 -7.087055,0.28348 -5.858854,5.10253 -8.882663,8.07909 -3.023809,2.97657 -6.236753,3.82716 -9.78028,3.82716 -2.760316,0 -5.384308,-2.29312 -7.799525,-4.12895 v 28.39052 c 0,4.6006 3.107785,8.3044 6.96805,8.3044 h 97.78266 c 3.86026,0 6.96805,-3.7038 6.96805,-8.3044 V 117.4884 c -0.0851,-0.1095 -0.17106,-0.19789 -0.2589,-0.25735 -3.07106,-2.07887 -1.32329,-4.58311 -2.78794,-7.79591 -1.41889,-3.11239 0.57676,-6.40193 -5.31079,-6.43268 z" />
    <path
       id="path1108"
       style="fill:#8080ff;fill-opacity:1;stroke:none;stroke-width:0.264583px;stroke-linecap:butt;stroke-linejoin:miter;stroke-opacity:1"
       d="m 143.17317,88.422988 c -0.18992,-9.92e-4 -0.38809,0.0013 -0.59479,0.0072 -6.61458,0.188992 -8.457,7.181397 -9.63818,9.402011 -1.18118,2.220611 -7.3703,5.386091 -10.96108,5.527831 -3.59077,0.14174 -6.75633,-0.42522 -9.26042,-3.638024 -2.50409,-3.212801 -2.07909,-11.103043 -10.53631,-10.914062 -8.457206,0.188989 -7.5593,7.606847 -12.284002,11.339366 -4.724701,3.73252 -8.221429,2.50438 -13.465844,-1.275381 -5.24442,-3.779763 -3.070984,-9.969195 -10.158037,-9.685716 -7.087055,0.28348 -5.858335,5.102538 -8.882144,8.079095 -3.023809,2.976572 -6.236756,3.827162 -9.780283,3.827162 -0.01276,0 -0.02548,-9.4e-4 -0.03824,-0.001 v 36.04637 l 61.08154,-0.51573 47.05811,1.70119 c 0,0 -1.37053,-33.59285 -4.44159,-35.67172 -3.07106,-2.07888 -1.32277,-4.583115 -2.78743,-7.795914 -1.41888,-3.112391 0.57625,-6.401932 -5.3113,-6.432682 z" />
    <path
       id="path1161"
       style="fill:#8080ff;fill-opacity:1;stroke:none;stroke-width:0.264583px;stroke-linecap:butt;stroke-linejoin:miter;stroke-opacity:1"
       d="m 143.17317,88.422988 c -0.18992,-9.92e-4 -0.38809,0.0013 -0.59479,0.0072 -6.61458,0.188992 -8.457,7.181397 -9.63818,9.402011 -1.18118,2.220611 -7.3703,5.386091 -10.96108,5.527831 -3.59077,0.14174 -6.75633,-0.42522 -9.26042,-3.638024 -2.50409,-3.212801 -2.07909,-11.103043 -10.53631,-10.914062 -8.457206,0.188989 -7.5593,7.606847 -12.284002,11.339366 -4.724701,3.73252 -8.221429,2.50438 -13.465844,-1.275381 -5.24442,-3.779763 -3.070984,-9.969195 -10.158037,-9.685716 -7.087055,0.28348 -5.858335,5.102538 -8.882144,8.079095 -3.023809,2.976572 -6.236756,3.827162 -9.780283,3.827162 -0.01276,0 -0.02548,-9.4e-4 -0.03824,-0.001 v 36.04637 l 61.08154,-0.51573 47.05811,1.70119 c 0,0 -1.37053,-33.59285 -4.44159,-35.67172 -3.07106,-2.07888 -1.32277,-4.583115 -2.78743,-7.795914 -1.41888,-3.112391 0.57625,-6.401932 -5.3113,-6.432682 z" />
    <path
       id="path1199"
       style="fill:url(#linearGradient1207);fill-opacity:1;stroke:none;stroke-width:0.264583px;stroke-linecap:butt;stroke-linejoin:miter;stroke-opacity:1"
       d="m 143.17317,88.422988 c -0.18992,-9.92e-4 -0.38809,0.0013 -0.59479,0.0072 -6.61458,0.188992 -8.457,7.181397 -9.63818,9.402011 -1.18118,2.220611 -7.3703,5.386091 -10.96108,5.527831 -3.59077,0.14174 -6.75633,-0.42522 -9.26042,-3.638024 -2.50409,-3.212801 -2.07909,-11.103043 -10.53631,-10.914062 -8.457206,0.188989 -7.5593,7.606847 -12.284002,11.339366 -4.724701,3.73252 -8.221429,2.50438 -13.465844,-1.275381 -5.24442,-3.779763 -3.070984,-9.969195 -10.158037,-9.685716 -7.087055,0.28348 -5.858335,5.102538 -8.882144,8.079095 -3.023809,2.976572 -6.236756,3.827162 -9.780283,3.827162 -0.01276,0 -0.02548,-9.4e-4 -0.03824,-0.001 v 36.04637 l 61.08154,-0.51573 47.05811,1.70119 c 0,0 -1.37053,-33.59285 -4.44159,-35.67172 -3.07106,-2.07888 -1.32277,-4.583115 -2.78743,-7.795914 -1.41888,-3.112391 0.57625,-6.401932 -5.3113,-6.432682 z" />
    <path
       id="path1104"
       style="fill:#8080ff;fill-opacity:1;stroke:none;stroke-width:0.264583px;stroke-linecap:butt;stroke-linejoin:miter;stroke-opacity:1"
       d="m 152.63564,93.751897 c -0.18992,-9.92e-4 -0.38809,0.0013 -0.5948,0.0072 -6.61458,0.188989 -8.457,7.181403 -9.63817,9.402023 -1.18118,2.2206 -7.37082,5.38608 -10.9616,5.52782 -3.59077,0.14174 -6.75633,-0.42522 -9.26042,-3.63802 -2.50409,-3.2128 -2.07857,-11.103048 -10.53579,-10.914067 -8.45721,0.188989 -7.55982,7.606857 -12.284516,11.339367 -4.724702,3.73252 -8.220911,2.50438 -13.465329,-1.27537 -5.244419,-3.77978 -3.070984,-9.969207 -10.158036,-9.685727 -7.087055,0.28348 -5.858854,5.102537 -8.882663,8.079107 -3.023809,2.97657 -6.236235,3.82715 -9.779765,3.82715 -3.422594,0 -6.636165,-3.52365 -9.500711,-5.32991 v 38.66276 c 0,0.97965 0.142433,1.91776 0.401527,2.78898 l 70.141963,-0.59221 40.4673,1.46244 c 0.45288,-1.10298 0.70797,-2.34411 0.70797,-3.65921 V 106.4896 c -0.99764,-1.76621 -0.21471,-3.82425 -1.34566,-6.30506 -1.41889,-3.112386 0.57624,-6.401927 -5.3113,-6.432677 z" />
    <path
       id="path1189"
       style="fill:url(#linearGradient1239);fill-opacity:1;stroke:none;stroke-width:0.264583px;stroke-linecap:butt;stroke-linejoin:miter;stroke-opacity:1"
       d="m 152.63564,93.752127 c -0.18992,-0.001 -0.38809,0.001 -0.5948,0.007 -6.61458,0.18899 -8.457,7.181403 -9.63817,9.402003 -1.18118,2.22061 -7.37082,5.38609 -10.9616,5.52783 -3.59077,0.14174 -6.75633,-0.42522 -9.26042,-3.63802 -2.50409,-3.2128 -2.07857,-11.103033 -10.53579,-10.914053 -8.45721,0.18899 -7.55982,7.606833 -12.284526,11.339353 -4.724701,3.73251 -8.220911,2.50438 -13.465328,-1.27538 -5.24442,-3.77975 -3.070984,-9.969183 -10.158037,-9.685703 -7.087055,0.28348 -5.858853,5.10253 -8.882663,8.079083 -3.023809,2.97657 -6.236234,3.82716 -9.779764,3.82716 -3.422594,0 -6.636165,-3.52366 -9.500711,-5.3299 v 38.66275 c 0,0.97965 0.142433,1.91775 0.401526,2.78897 l 70.141973,-0.59221 40.4673,1.46244 c 0.45288,-1.10297 0.70797,-2.34411 0.70797,-3.6592 v -33.26464 c -0.99764,-1.7662 -0.21471,-3.82424 -1.34566,-6.30503 -1.41889,-3.112393 0.57624,-6.401933 -5.3113,-6.432683 z" />
    <path
       id="path1223"
       style="fill:#8080ff;fill-opacity:1;stroke:none;stroke-width:0.264583px;stroke-linecap:butt;stroke-linejoin:miter;stroke-opacity:1"
       d="m 150.93497,103.00246 c -0.18992,-9.9e-4 -0.38809,0.001 -0.5948,0.007 -6.61457,0.18899 -8.45751,7.1814 -9.63868,9.40201 -1.18118,2.22061 -7.37031,5.38661 -10.96109,5.52835 -3.59077,0.14174 -6.75633,-0.42522 -9.26042,-3.63802 -2.50409,-3.2128 -2.07909,-11.10304 -10.5363,-10.91406 -8.45721,0.18899 -7.55931,7.60633 -12.28401,11.33884 -4.724701,3.73252 -8.220911,2.50438 -13.465328,-1.27538 -5.24442,-3.77976 -3.070984,-9.96919 -10.158034,-9.68571 -7.087055,0.28348 -5.858854,5.10253 -8.882663,8.07909 -3.023809,2.97657 -6.236753,3.82716 -9.78028,3.82716 -2.760316,0 -5.384308,-2.29312 -7.799525,-4.12895 v 28.39052 c 0,4.6006 3.107785,8.3044 6.96805,8.3044 h 97.78266 c 3.86026,0 6.96805,-3.7038 6.96805,-8.3044 V 117.4884 c -0.0851,-0.1095 -0.17106,-0.19789 -0.2589,-0.25735 -3.07106,-2.07887 -1.32329,-4.58311 -2.78794,-7.79591 -1.41889,-3.11239 0.57676,-6.40193 -5.31079,-6.43268 z" />
    <path
       id="path1149"
       style="fill:url(#linearGradient1219);fill-opacity:1;stroke:none;stroke-width:0.264583px;stroke-linecap:butt;stroke-linejoin:miter;stroke-opacity:1"
       d="m 150.93497,103.00246 c -0.18992,-9.9e-4 -0.38809,0.001 -0.5948,0.007 -6.61458,0.18899 -8.45752,7.1814 -9.63869,9.402 -1.18118,2.22061 -7.37031,5.3866 -10.96109,5.52834 -3.59076,0.14174 -6.75632,-0.42522 -9.26041,-3.63802 -2.50409,-3.2128 -2.07909,-11.10303 -10.53631,-10.91405 -8.4572,0.18899 -7.55929,7.60632 -12.283999,11.33883 -4.7247,3.73252 -8.22091,2.50439 -13.46533,-1.27537 -5.24442,-3.77976 -3.07098,-9.96919 -10.15803,-9.68571 -7.08706,0.28348 -5.85886,5.10254 -8.88266,8.07909 -3.023814,2.97656 -6.236758,3.82715 -9.780286,3.82715 -2.760316,0 -5.384308,-2.29311 -7.799525,-4.12894 v 28.39051 c 0,4.6006 3.107785,8.3044 6.968051,8.3044 h 97.782659 c 3.86026,0 6.96805,-3.7038 6.96805,-8.3044 v -22.44514 c -0.0851,-0.1095 -0.17107,-0.19789 -0.2589,-0.25735 -3.07106,-2.07887 -1.3233,-4.58311 -2.78795,-7.7959 -1.41889,-3.11239 0.57676,-6.40193 -5.31078,-6.43268 z" />
    <path
       id="path1099"
       style="fill:#3737c8;fill-opacity:1;stroke:none;stroke-width:0.264583px;stroke-linecap:butt;stroke-linejoin:miter;stroke-opacity:1"
       d="m 148.26227,103.1363 c -0.18992,-9.9e-4 -0.38809,10e-4 -0.5948,0.007 -6.61458,0.18899 -8.45752,7.1814 -9.63869,9.40201 -1.06559,2.0033 -6.20618,4.77477 -9.83867,5.40225 0.50754,0.0158 1.02371,0.013 1.55029,-0.008 3.59078,-0.14174 9.77991,-3.30774 10.96109,-5.52835 1.09488,-2.05839 2.76123,-8.21281 8.26668,-9.25215 -0.22332,-0.0129 -0.45478,-0.0219 -0.7059,-0.0232 z m -40.9913,0.38499 c -8.457206,0.18899 -7.5593,7.60685 -12.284004,11.33936 -1.363017,1.07678 -2.6235,1.73853 -3.853511,2.04742 2.115995,0.30891 4.168294,-0.3185 6.526215,-2.18126 4.3829,-3.46249 3.93274,-10.09175 10.59522,-11.18433 -0.31547,-0.0182 -0.63984,-0.0289 -0.98392,-0.0212 z m -35.269681,0.37 c -0.203893,-0.004 -0.416216,-5.9e-4 -0.637688,0.008 -7.087055,0.28348 -5.858851,5.10254 -8.88266,8.0791 -2.34682,2.31015 -4.808403,3.33625 -7.449159,3.68143 0.113734,0.008 0.22738,0.0119 0.341583,0.0119 3.543527,0 6.756471,-0.85059 9.78028,-3.82716 2.786414,-2.74287 1.9676,-7.04692 7.366476,-7.9282 -0.167359,-0.0124 -0.338471,-0.0222 -0.518832,-0.0253 z" />
    <path
       id="path1110"
       style="fill:#3737c8;fill-opacity:1;stroke:none;stroke-width:0.264583px;stroke-linecap:butt;stroke-linejoin:miter;stroke-opacity:1"
       d="m 140.50098,88.556312 v 5.18e-4 c -0.18992,-9.92e-4 -0.38808,0.0013 -0.59479,0.0072 -6.61458,0.188989 -8.45752,7.1814 -9.63869,9.402011 -1.06559,2.003308 -6.20619,4.774789 -9.83868,5.402259 0.50754,0.0158 1.02372,0.0127 1.5503,-0.008 3.59078,-0.14174 9.7799,-3.30773 10.96108,-5.528347 1.09488,-2.058392 2.76123,-8.212815 8.26668,-9.252149 -0.22332,-0.0129 -0.45478,-0.02194 -0.7059,-0.02326 z M 99.509687,88.94182 c -8.4572,0.188989 -7.559307,7.606848 -12.284003,11.33936 -1.36302,1.07679 -2.623503,1.73853 -3.853514,2.04742 2.115995,0.30891 4.168297,-0.31849 6.526218,-2.18126 4.382897,-3.462483 3.93274,-10.091754 10.595222,-11.184335 -0.31547,-0.0182 -0.639843,-0.02888 -0.983923,-0.02118 z m -35.26968,0.370001 c -0.203893,-0.0035 -0.416216,-6.21e-4 -0.637688,0.0083 -7.087055,0.283479 -5.858854,5.102534 -8.882663,8.079094 -2.256563,2.221307 -4.619781,3.253345 -7.145816,3.636465 v 0.0553 c 0.01277,9e-5 0.02545,0.002 0.03824,0.002 3.543527,0 6.756474,-0.85059 9.780283,-3.827157 2.786412,-2.742875 1.967598,-7.046928 7.366473,-7.928197 -0.167359,-0.01239 -0.338473,-0.02222 -0.518829,-0.02532 z" />
    <path
       id="path1106"
       style="fill:#3737c8;fill-opacity:1;stroke:none;stroke-width:0.264583px;stroke-linecap:butt;stroke-linejoin:miter;stroke-opacity:1"
       d="m 149.96294,94.064503 v 5.18e-4 c -0.18992,-9.92e-4 -0.38809,0.0013 -0.5948,0.0072 -6.61458,0.188989 -8.45752,7.181409 -9.63869,9.402019 -1.06559,2.0033 -6.20618,4.77478 -9.83867,5.40225 0.50754,0.0158 1.02371,0.0127 1.55029,-0.008 3.59078,-0.14174 9.77991,-3.30773 10.96109,-5.52834 1.09488,-2.05839 2.76123,-8.212824 8.26668,-9.252154 -0.22332,-0.0129 -0.45478,-0.02195 -0.7059,-0.02326 z m -40.9913,0.385508 c -8.4572,0.188987 -7.5593,7.606849 -12.284004,11.339359 -1.363017,1.07679 -2.6235,1.73853 -3.853511,2.04742 2.115995,0.30891 4.168297,-0.31849 6.526218,-2.18126 4.382897,-3.46248 3.932737,-10.091753 10.595217,-11.184334 -0.31547,-0.0182 -0.63984,-0.02888 -0.98392,-0.02119 z m -35.269681,0.370001 c -0.203893,-0.0035 -0.416213,-6.21e-4 -0.637685,0.0083 -7.087055,0.283479 -5.858854,5.102534 -8.882663,8.079088 -2.34682,2.31015 -4.808403,3.33625 -7.449156,3.68143 0.113731,0.008 0.227378,0.0119 0.34158,0.0119 3.543527,0 6.756471,-0.85059 9.78028,-3.82716 2.786415,-2.74287 1.967601,-7.046924 7.366476,-7.928193 -0.167359,-0.01239 -0.33847,-0.02222 -0.518832,-0.02532 z" />
    <path
       id="path1245"
       style="fill:#00aa88;fill-opacity:1;stroke:none;stroke-width:0.264999;stroke-linecap:round;stroke-linejoin:bevel;stroke-opacity:1"
       inkscape:transform-center-x="-2.3569742"
       inkscape:transform-center-y="-0.0067507552"
       d="m 122.37139,68.343347 -7.09431,4.082401 -6.81083,3.46819 0.10619,-15.083118 0.67315,-2.37367 6.04318,5.803546 z"
       sodipodi:nodetypes="ccccccc" />
    <path
       id="ellipse1247"
       style="fill:#00aa88;fill-rule:evenodd;stroke-width:0.264583"
       d="m 155.56913,71.711406 c -0.61036,4.630742 -10.1662,8.732348 -20.17792,7.412728 -10.01171,-1.319619 -17.633,-6.143338 -17.02264,-10.774078 0.61037,-4.630741 9.22126,-7.314936 19.23298,-5.995315 10.01171,1.319618 18.57794,4.725925 17.96758,9.356665 z"
       sodipodi:nodetypes="sssss" />
    <path
       sodipodi:type="star"
       style="fill:#37c8ab;fill-opacity:1;stroke:none;stroke-width:0.264999;stroke-linecap:round;stroke-linejoin:bevel;stroke-opacity:1"
       id="path1241"
       sodipodi:sides="3"
       sodipodi:cx="81.831841"
       sodipodi:cy="61.610119"
       sodipodi:r1="9.4512939"
       sodipodi:r2="4.725647"
       sodipodi:arg1="0.20131711"
       sodipodi:arg2="1.2485147"
       inkscape:flatsided="false"
       inkscape:rounded="0"
       inkscape:randomized="0"
       d="m 91.092257,63.5 -7.763655,2.592467 -7.763654,2.592467 1.636684,-8.019756 1.636685,-8.019755 6.12697,5.427288 z"
       inkscape:transform-center-x="-2.3569742"
       inkscape:transform-center-y="-0.0067507552"
       transform="rotate(-11.45278,122.92017,-96.072855)" />
    <ellipse
       style="fill:#37c8ab;fill-rule:evenodd;stroke-width:0.264583"
       id="path1243"
       cx="145.37819"
       cy="50.47374"
       rx="18.284597"
       ry="8.4572172"
       transform="rotate(7.5087287)" />
    <ellipse
       style="fill:#00aa88;fill-rule:evenodd;stroke-width:0.264583"
       id="ellipse1252"
       cx="160.92174"
       cy="31.042528"
       rx="3.6749561"
       ry="2.2383823"
       transform="rotate(13.886011)" />
    <path
       id="ellipse1274"
       style="fill:url(#linearGradient1287);fill-opacity:1;fill-rule:evenodd;stroke-width:0.264583"
       d="m 109.24551,58.437076 -0.0114,8.185031 -0.0119,8.185031 7.09414,-4.082439 3.37602,-1.942518 a 18.284597,8.457217 7.5087287 0 0 16.738,8.640815 18.284597,8.457217 7.5087287 0 0 19.23293,-5.994982 18.284597,8.457217 7.5087287 0 0 -17.02222,-10.774018 18.284597,8.457217 7.5087287 0 0 -18.4769,4.107759 l -3.83594,-2.222087 z" />
    <ellipse
       style="fill:#f2f2f2;fill-rule:evenodd;stroke-width:0.264583"
       id="path1250"
       cx="160.9476"
       cy="30.45109"
       rx="3.6749561"
       ry="2.2383823"
       transform="rotate(13.886011)" />
    <ellipse
       style="fill:#4d4d4d;fill-rule:evenodd;stroke-width:0.264583"
       id="path1254"
       cx="150.49171"
       cy="68.905396"
       rx="1.5827754"
       ry="1.2756697" />
    <ellipse
       style="fill:#ffffff;fill-rule:evenodd;stroke-width:0.264583"
       id="path1256"
       cx="151.14926"
       cy="68.420998"
       rx="0.34243909"
       ry="0.33408689" />
    <path
       id="rect1270"
       style="fill:#333333;fill-opacity:1;stroke:none;stroke-width:0.265;stroke-linecap:round;stroke-linejoin:bevel;stroke-opacity:1"
       d="m 146.70015,71.87271 c 2.08452,0.487177 3.72877,0.895548 5.62239,1.181176 0.86042,0.129783 2.59933,0.240716 2.59933,0.240716 0,0 -0.16574,0.228975 -0.2545,0.338879 -0.0766,0.09488 -0.23974,0.27636 -0.23974,0.27636 0,0 -4.05855,0.176923 -5.88485,-0.563229 -0.72894,-0.295422 -2.60852,-1.6529 -1.84263,-1.473902 z"
       sodipodi:nodetypes="sacacas" />
    <path
       id="path1289"
       style="fill:url(#radialGradient1297);fill-opacity:1;fill-rule:evenodd;stroke-width:0.999999"
       d="M 206.14258 139.03516 C 191.5526 139.03516 179.80664 153.03376 179.80664 170.42188 L 179.80664 393.55273 A 323.24915 278.68465 0 0 0 499.66992 139.03516 L 206.14258 139.03516 z "
       transform="scale(0.26458333)" />
    <path
       id="path1299"
       style="fill:#b3b3b3;fill-rule:evenodd;stroke-width:0.264583"
       d="m 88.540927,65.815102 c 0,5.349232 -3.629426,3.732516 -13.701639,3.732516 -3.334445,0 -6.270893,3.210012 -8.960263,2.380087 -5.434291,-1.676992 -13.812803,-2.534255 -13.812803,-6.112603 0,-3.101062 4.822981,-2.365458 9.091942,-4.138212 3.094857,-1.285189 4.912272,-5.547428 9.14541,-5.547428 4.366841,0 6.201849,4.311388 9.341754,5.670751 4.102353,1.776036 8.895599,0.984835 8.895599,4.014889 z"
       sodipodi:nodetypes="ssssssss" />
    <path
       id="path1302"
       style="fill:#ffffff;fill-rule:evenodd;stroke-width:0.265;stroke:none;stroke-opacity:1;stroke-miterlimit:4;stroke-dasharray:none"
       d="m 153.60539,47.838304 c 0,1.533738 -1.05219,3.038484 -3.63359,3.81073 -3.08403,0.922608 -8.18923,0.96122 -14.08405,0.961219 -10.82893,-10e-7 -23.29278,-1.122366 -23.29278,-4.488467 0,-2.36282 1.39614,-7.057441 7.71996,-8.068836 2.68517,-0.42945 9.22691,4.619804 12.45452,4.619803 4.99333,0 12.29104,-1.687659 15.75282,-0.732313 4.04571,1.116492 5.08312,2.083907 5.08312,3.897864 z"
       sodipodi:nodetypes="ssssssss" />
    <path
       id="path1305"
       style="fill:#cccccc;fill-rule:evenodd;stroke:none;stroke-width:1.00157;stroke-miterlimit:4;stroke-dasharray:none;stroke-opacity:1"
       d="M 580.2207 183.60938 C 579.0985 188.37568 574.99348 192.7645 566.82227 195.20898 C 555.16609 198.69601 535.87143 198.8418 513.5918 198.8418 C 474.64544 198.84179 430.10716 195.00017 425.88477 183.66602 C 425.66289 185.12541 425.55664 186.48821 425.55664 187.68555 C 425.55664 200.40782 472.66356 204.65039 513.5918 204.65039 C 535.87143 204.65039 555.16609 204.5046 566.82227 201.01758 C 576.57874 198.09885 580.55664 192.41204 580.55664 186.61523 C 580.55664 185.53683 580.44372 184.5441 580.2207 183.60938 z "
       transform="scale(0.26458333)" />
    <path
       id="path1310"
       style="fill:#ffffff;fill-rule:evenodd;stroke-width:0.264583"
       d="m 88.540927,65.815102 c 0,5.349232 -3.629426,3.732516 -13.701639,3.732516 -3.334445,0 -6.270893,3.210012 -8.960263,2.380087 -5.434291,-1.676992 -13.812803,-2.534255 -13.812803,-6.112603 0,-3.101062 4.822981,-2.365458 9.091942,-4.138212 3.094857,-1.285189 4.912272,-5.547428 9.14541,-5.547428 4.366841,0 6.201849,4.311388 9.341754,5.670751 4.102353,1.776036 8.895599,0.984835 8.895599,4.014889 z"
       sodipodi:nodetypes="ssssssss" />
    <path
       id="path1315"
       style="fill:#cccccc;fill-rule:evenodd;stroke-width:0.264583"
       d="m 52.256682,66.758726 c -0.13989,0.279906 -0.214973,0.607611 -0.214973,0.994773 0,3.578346 8.378816,4.435295 13.813109,6.112287 2.689371,0.829927 5.625733,-2.380215 8.960176,-2.380215 10.072213,0 13.70149,1.61716 13.70149,-3.732072 0,-0.242081 -0.03359,-0.457669 -0.09199,-0.654225 -0.617257,3.785161 -4.446977,2.448946 -13.609505,2.448946 -3.334443,0 -6.270805,3.210142 -8.960176,2.380218 C 60.93337,70.409706 53.597512,69.562815 52.256677,66.758726 Z" />
  </g>
</svg>
